<?xml version="1.0" encoding="utf-8" ?><svg xmlns="http://www.w3.org/2000/svg" xmlns:xlink="http://www.w3.org/1999/xlink" width="743" height="955" viewBox="0 0 743 955"><path fill="#942625" transform="scale(0.829241 0.828993)" d="M340.343 233.016C333.037 218.126 322.058 204.631 313.712 189.71C303.832 172.044 314.843 164.68 318.747 174.408C326.064 192.64 335.875 208.458 344.88 226.01C351.467 239.438 340.057 247.789 331.898 256.463C343.993 268.4 351.957 283.737 343.85 300.545C338.326 311.998 325.559 335.984 317.354 345.204L318.432 345.706C318.167 347.62 313.178 358.286 312.04 361.092C306.793 374.037 300.467 386.362 292.586 397.908C278.459 418.609 262.569 430.393 255.083 455.114C267.704 470.174 266.206 481.944 274.351 497.497C285.443 518.679 296.781 541.022 309.566 561.191C316.305 571.824 325.696 580.206 336.067 587.097C338.668 588.804 341.279 590.576 342.311 593.631C341.746 595.839 342.317 594.97 340.61 596.377C335.593 597.413 327.538 592.223 323.41 589.506C284.538 563.916 268.656 516.024 251.383 475.11C246.037 462.447 241.464 453.07 250.949 440.902C253.521 437.386 266.4 421.671 266.774 419.222C259.652 420.638 256.471 415.321 253.612 409.556C247.468 397.953 243.605 374.139 239.973 361.122C236.022 346.958 230.552 331.923 228.635 317.436C226.996 301.908 226.439 286.272 224.76 270.719C224.143 265.008 224.24 257.693 224.53 251.95C223.761 241.861 225.18 187.126 234.091 184.5C240.269 185.952 258.257 202.752 264.899 207.749C266.622 208.738 266.101 208.057 266.839 209.566C268.883 207.371 268.716 208.26 270.66 206.862C276.782 202.032 282.501 193.947 288.648 189.586L288.104 188.227C289.954 186.849 292.945 185.04 293.385 182.949C292.887 179.817 293.055 172.928 296.857 172.118C298.471 172.895 298.672 173.587 299.666 175.193C300.69 182.966 300.512 193.227 300.432 201.233C298.069 198.411 296.26 196.316 293.665 193.723C286.045 200.408 277.442 206.119 269.641 212.628C276.893 218.213 286.401 224.842 292.461 231.311C292.701 219.305 294.29 207.577 294.258 195.452C295.992 197.395 298.667 200.569 300.504 202.217C301.936 219.312 302.119 238.404 301.688 255.565C301.497 263.207 300.652 270.576 300.909 278.314C301.969 310.329 288.386 339.013 281.26 369.855C281.072 373.754 279.562 378.367 274.897 377.782C270.393 374.352 273.499 367.83 275.257 363.656C282.402 345.914 283.21 326.89 284.809 307.977C279.09 303.446 280.739 296.397 278.679 290.055C274.735 277.911 269.409 266 263.194 254.854C257.767 271.496 252.813 287.488 248.213 304.372C246.327 311.295 242.128 319.583 240.865 326.497C238.992 324.777 231.45 317.212 229.695 316.529C231.665 319.775 237.935 325.125 241.064 327.916C242.295 347.693 245.136 362.584 253.301 381.09C256.099 387.431 260.574 394.465 263.139 400.509C266.127 406.341 267.84 410.304 268.395 416.955C276.83 401.804 285.615 386.851 294.742 372.107C309.233 348.243 322.881 326.234 331.243 299.502C333.209 293.216 338.709 288.928 336.569 281.659C335.16 272.038 313.873 262.449 319.825 253.018C323.833 246.668 334.523 239.337 340.343 233.016ZM225.824 251.882C226.513 251.866 232.369 245.942 234.03 244.711C236.033 264.38 234.357 282.168 238.768 301.673C242.554 294.183 246.811 285.361 248.731 277.205C250.808 268.383 251.955 259.669 254.298 250.808C251.661 246.735 242.481 238.831 243.489 234.753L248.607 229.67L249.903 229.971C253.999 233.751 259.317 240.863 262.941 245.481C267.013 238.068 270.993 231.475 276.705 225.176C272.983 222.291 268.559 219.258 264.685 216.484C261.226 219.714 258.022 222.686 254.394 225.745L253.225 224.535C254.244 223.496 254.939 222.274 255.732 221.047C252.494 223.79 245.823 230.522 243.036 233.827C240.222 236.969 226.768 249.76 225.824 251.882ZM291.376 237.315C287.066 235.447 284.945 233.425 282.073 229.673C280.037 239.042 277.475 241.968 271.825 249.636C276.574 262.757 280.491 277.236 285.326 289.843L287.098 293.973C292.482 278.011 291.554 254.036 291.376 237.315ZM258.922 212.475C251.586 207.242 242.844 200.747 235.889 194.886C233.168 208.799 231.64 218.442 232.652 232.745C236.367 229.525 240.587 225.668 244.545 222.86C249.382 219.093 253.744 215.787 258.922 212.475Z"/><path fill="#D1A19F" fill-opacity="0.070588239" transform="scale(0.829241 0.828993)" d="M243.036 233.827C245.823 230.522 252.494 223.79 255.732 221.047C254.939 222.274 254.244 223.496 253.225 224.535C251.925 225.933 249.673 228.212 248.607 229.67L243.489 234.753L243.036 233.827Z"/><path fill="#A53E3B" fill-opacity="0.93725491" transform="scale(0.829241 0.828993)" d="M253.225 224.535L254.394 225.745C252.776 227.137 251.261 228.321 249.903 229.971L248.607 229.67C249.673 228.212 251.925 225.933 253.225 224.535Z"/><path fill="#942625" transform="scale(0.829241 0.828993)" d="M252.393 901.472C251.2 894.605 250.859 884.333 250.684 877.317C250.404 859.74 250.829 842.159 251.961 824.616C252.364 817.551 253.669 804.621 253.554 798.038C253.263 781.452 252.081 765.494 252.001 748.746C251.927 733.507 254.279 722.948 255.16 709.013L260.98 628.622C261.621 619.546 260.36 603.609 263.867 596.006C268.76 594.39 276.144 603.112 276.82 607.931C278.846 622.355 276.821 637.154 277.156 651.68C277.547 661.466 279.75 671.422 280.246 681.385C281.704 710.715 280.732 739.634 283.743 768.937C284.954 780.726 281.333 795.512 281.945 807.558C282.128 816.541 283.776 828.608 284.63 837.812C285.744 850.794 286.625 863.795 287.272 876.808C288.283 896.749 288.637 916.759 288.515 936.723C288.499 939.257 288.386 943.701 288.712 946.075C292.149 971.06 293.526 994.13 293.079 1019.35C311.311 1019 329.605 1016.44 347.743 1015.35C347.269 1010.28 346.862 1005.21 346.521 1000.13L347.218 998.83C350.64 1000.6 356.813 1008.52 360.67 1010.8C361.149 1013.7 358.765 1019.66 355.95 1020.74C351.232 1022.56 345.56 1023.31 340.574 1024.33C324.058 1027.71 301.459 1033.26 285.045 1027.8C275.716 1013.99 279.313 963.702 279.68 945.345C281.793 943.552 284.539 940.791 286.613 938.828C287.458 938.097 287.184 938.407 287.706 937.399C286.38 935.148 284.08 933.418 282.074 931.651C281.604 931.188 281.032 930.624 280.359 929.96C279.019 924.831 279.902 918.801 279.155 913.607C273.839 876.655 275.977 839.105 273.515 801.87C273.065 788.463 270.299 775.291 269.288 761.976C268.99 758.056 269.298 753.301 269.274 749.273C269.234 742.794 269.339 736.283 269.363 729.801C269.577 708.631 269.387 687.459 268.791 666.296C269.005 662.67 268.822 640.505 267.889 638.394C267.678 642.693 267.385 651.747 267.727 655.693C267.303 671.258 266.977 686.824 266.746 702.392C266.633 709.502 266.85 721.041 266.246 727.851C262.652 724.059 260.091 721.516 256.162 718.038C258.238 721.09 263.455 726.197 266.239 729.028C266.213 738.009 265.505 767.868 262.667 775.663C259.751 777.106 256.233 781.263 254.017 783.804C258.344 781.127 259.029 779.603 262.659 776.329C262.312 785.595 260.746 794.62 260.963 803.923C261.204 814.31 262.484 824.518 262.716 834.925C263.096 851.946 261.738 868.707 260.225 885.634C259.689 891.641 259.393 902.063 258.293 907.491C257.837 928.668 259.818 948.315 255.507 968.665C254.074 970.064 253.298 971.025 252.031 972.589L252.206 973.041C253.086 972.3 253.956 971.549 254.818 970.787C255.036 971.411 255.163 971.461 255.081 972.009C253.125 985.119 253.127 998.195 253.678 1011.39C253.885 1016.35 253.431 1023.61 250.133 1027.53C247.627 1030.5 242.285 1026.33 239.361 1026.33C235.072 1026.38 230.877 1026.55 226.635 1026.66C217.325 1026.91 208.012 1027.07 198.698 1027.14C202.217 1023.76 203.931 1021.39 208.047 1017.99C218.287 1018.23 230.742 1019.88 240.739 1018.79C241.172 998.581 244.006 977.48 246.598 957.382C249.03 938.527 250.849 920.406 252.393 901.472ZM271.06 767.355C273.48 764.887 279.952 758.54 281.465 756.189L281.293 755.411C279.446 757.29 271.383 765.09 270.902 766.741L271.06 767.355Z"/><path fill="#D1A19F" fill-opacity="0.13333334" transform="scale(0.829241 0.828993)" d="M281.293 755.411L281.465 756.189C279.952 758.54 273.48 764.887 271.06 767.355L270.902 766.741C271.383 765.09 279.446 757.29 281.293 755.411Z"/><path fill="#942625" transform="scale(0.829241 0.828993)" d="M495.691 213.261C507.662 201.378 523.583 200.15 538.529 194.706C555.29 188.102 574.537 186.485 589.623 176.362C599.913 169.457 593.924 160.589 589.786 152.252C580.401 133.344 598.416 108.749 618.279 107.694C629.465 107.1 637.289 114.901 637.108 126.052C637.061 130.918 636.948 133.499 633.146 137.141C630.698 139.486 627.186 142.182 623.752 140.501C618.072 134.001 635.021 117.911 618.221 115.786C609.996 114.746 599.228 126.882 599.738 135.067C600.662 146.788 608.148 152.165 609.804 164.834C619.916 171.514 626.514 173.824 638.921 175.261C666.504 178.467 704.342 165.222 725.472 189.019C729.11 193.117 734.645 202.498 731.241 207.838C729.065 211.251 724.314 208.492 722.589 205.994C716.582 197.299 717.61 193.159 707.898 188.021C704.539 196.674 699.306 203.848 696.528 212.766C692.905 224.397 697.457 234.904 690.363 245.3C716.889 254.187 724.707 275.054 715.505 301.133C704.962 331.01 679.362 362.354 687.13 395.722C687.952 399.318 690.239 406.07 686.851 408.36C685.589 408.064 684.465 407.689 683.854 406.307C676.511 389.707 675.275 370.703 679.401 352.951C686.661 321.711 720.207 295.731 701.818 261.526C699.268 256.783 694.257 253.158 689.042 252.019C661.092 246.649 637.677 280.261 608.883 271.932C602.451 270.071 593.798 263.428 587.671 259.629C589.352 257.746 590.987 255.833 592.864 254.145C596.342 255.767 599.827 258.164 603.242 259.595C626.216 269.224 647.512 247.476 669.296 243.919C673.884 243.17 681.191 243.896 685.716 244.204C682.26 238.941 683.593 227.993 685.101 222.202C688.339 209.773 695.177 197.453 702.437 186.908C695.546 186.303 688.562 185.685 681.655 185.53C654.512 184.923 631.104 187.805 606.829 173.116C596.381 188.347 574.065 196.536 556.429 199.835C552.898 200.465 549.359 201.05 545.813 201.589C557.466 216.983 563.133 226.413 562.487 246.228C572.904 245.309 583.032 248.286 591.869 253.793L586.734 259.065C575.483 254.67 567.16 255.404 556.067 260.095C534.683 269.303 533.561 290.502 536.323 310.733C537.852 321.93 541.315 331.252 543.643 342.399C548.236 364.394 557.288 387.269 557.355 409.817C557.363 412.516 555.991 415.035 553.637 416.25C549.259 415.832 548.572 405.634 548.442 402.144C547.358 372.954 529.927 349.112 524.718 321.259C519.013 290.754 520.799 257.09 556.037 246.949C552.141 240.167 549.903 231.093 546.957 223.726C544.077 216.523 538.791 209.819 539.772 201.972C523.513 205.16 515.584 210.01 502.61 219.546C499.661 222.201 495.282 226.997 490.988 225.232C488.443 221.383 493.023 216.056 495.691 213.261ZM681.155 352.512C684.392 349.272 696.85 337.242 698.927 334.231L698.905 333.577C694.616 337.745 684.531 347.183 681.138 351.594L681.155 352.512Z"/><path fill="#D1A19F" fill-opacity="0.24705882" transform="scale(0.829241 0.828993)" d="M698.905 333.577L698.927 334.231C696.85 337.242 684.392 349.272 681.155 352.512L681.138 351.594C684.531 347.183 694.616 337.745 698.905 333.577Z"/><path fill="#942625" transform="scale(0.829241 0.828993)" d="M512.567 594.732C516.411 594.332 517.784 593.486 521.043 591.654C517.509 609.693 513.996 629.055 507.431 646.216C503.229 657.201 497.716 665.521 494.018 677.084C486.691 699.996 486.281 730.029 472.959 749.955C469.062 749.253 469.105 746.63 464.542 744.336C466.657 746.649 468.526 748.606 470.767 750.796C469.113 752.442 457.398 764.008 457.03 765.493C462.423 760.85 467.919 754.064 472.987 750.46C472.096 754.504 470.364 758.259 468.735 762.057C458.907 784.974 450.461 808.627 438.497 830.575C433.669 839.431 430.986 847.446 427.451 856.762C424.257 865.122 420.605 873.301 416.514 881.261C414.366 879.141 411.92 876.442 409.288 875.084L409.593 875.971L409.172 875.143L410.08 875.58L410.002 876.489C412.034 878.587 413.714 880.153 415.899 882.097C415.867 882.233 415.836 882.37 415.804 882.506C410.545 900.764 393.153 923.868 405.098 942.846C421.444 968.816 459.274 964.598 474.704 992.802C480.218 1002.88 497.293 1015.87 508.255 1018.66C532.753 1024.83 551.848 999.483 574.428 996.476C575.018 996.397 575.61 996.334 576.203 996.285C601.824 994.172 613.578 1022.4 648.65 1020.69C699.117 1018.23 727.292 964.802 789.389 982.3C793.668 983.506 805.624 986.79 808.563 989.955C808.767 990.175 809.051 990.569 809.203 990.834C809.725 991.746 809.587 992.606 809.615 993.631C805.371 1001.97 784.7 991.906 777.336 990.739C747.691 986.039 720.26 1000.28 696.126 1015.77C687.783 1021.13 680.594 1029.16 670.435 1031.26C649.373 1036.49 631.1 1028.16 612.57 1019.26C603.186 1014.75 599.384 1012.04 588.822 1010.62C579.019 1009.29 570.628 1011.53 561.18 1014.29C558.356 1015.12 553.094 1017.28 550.481 1017.17L549.018 1015.79C547.583 1014.18 546.469 1012.51 544.499 1011.93C544.581 1013.55 547.24 1015.52 548.603 1016.3C549.069 1017.15 548.939 1016.95 549.141 1017.93C546.557 1020.29 541.01 1022.01 537.681 1023.36C525.775 1028.17 513.783 1031.14 500.972 1027.54C485.659 1023.24 473.279 1009.33 463.918 996.986C458.356 989.336 458.507 983.863 448.727 978.099C432.825 968.725 406.316 969.145 396.787 951.429C390.091 938.98 389.583 922.662 393.05 909.138C398.173 888.56 410.217 871.145 419.463 852.45C424.48 842.307 428.958 829.88 433.274 819.311C441.089 800.02 448.74 780.664 456.226 761.243C467.709 732.228 479.195 703.939 487.314 673.762C494.451 647.234 504.867 621.215 512.567 594.732ZM584.917 1009.78C587.358 1007.33 591.104 1003.78 593.124 1001.13L592.986 1000.04C590.161 1002.9 587.484 1005.62 584.792 1008.62L584.917 1009.78Z"/><path fill="#C88988" fill-opacity="0.16470589" transform="scale(0.829241 0.828993)" d="M592.986 1000.04L593.124 1001.13C591.104 1003.78 587.358 1007.33 584.917 1009.78L584.792 1008.62C587.484 1005.62 590.161 1002.9 592.986 1000.04Z"/><path fill="#942625" transform="scale(0.829241 0.828993)" d="M694.302 527.156C697.146 524.965 701.95 520.253 704.397 517.513C708.173 544.927 711.144 573.04 715.83 600.227C719.972 624.255 729.02 648.444 733.361 672.448C731.888 673.833 727.323 677.625 727.258 679.239L726.955 678.948L726.928 679.496L726.716 679.467L727.333 679.366L726.613 679.748L727.244 678.85L728.005 678.888C729.947 677.18 731.866 675.444 733.76 673.682C736.552 684.814 737.584 695.695 739.438 706.912C740.191 711.464 743.856 721.047 746.141 725.382C754.955 742.103 761.922 759.788 769.889 776.79C777.881 793.847 791.285 809.683 801.265 825.656C807.603 834.899 812.23 845.298 817.841 854.898C835.212 884.537 852.309 919.273 843.623 954.527C841.744 962.153 839.46 968.9 833.817 974.674C831.558 976.984 825.546 982.438 822.115 981.135C817.445 976.673 825.575 970.12 827.665 965.975C831.099 959.161 833.796 951.602 834.904 944.044C834.615 940.068 834.724 934.979 834.7 930.913C832.122 916.82 825.079 887.433 819.355 874.586C812.035 858.157 794.459 838.627 784.017 823.644C771.263 805.672 760.409 786.45 750.277 766.993C738.744 746.184 736.359 724.231 731.202 701.66C725.406 676.293 714.956 652.268 712.384 625.914C711.722 619.129 710.439 610.416 709.005 603.696C703.657 578.631 696.497 552.763 694.302 527.156ZM722.401 628.512C719.945 625.569 716.276 621.509 713.056 619.449L712.383 619.581C714.12 621.934 719.703 627.501 722.401 628.512ZM779.548 813.982C781.848 811.884 784.846 809.342 786.651 806.9L786.532 806.021C784.431 808.071 781.078 811.154 779.386 813.363L779.548 813.982Z"/><path fill="#D1A19F" fill-opacity="0.25098041" transform="scale(0.829241 0.828993)" d="M712.383 619.581L713.056 619.449C716.276 621.509 719.945 625.569 722.401 628.512C719.703 627.501 714.12 621.934 712.383 619.581Z"/><path fill="#C88988" fill-opacity="0.20392157" transform="scale(0.829241 0.828993)" d="M786.532 806.021L786.651 806.9C784.846 809.342 781.848 811.884 779.548 813.982L779.386 813.363C781.078 811.154 784.431 808.071 786.532 806.021Z"/><path fill="#942625" transform="scale(0.829241 0.828993)" d="M346.737 996.691C347.932 976.707 353.473 953.237 353.31 934.069C352.958 892.573 351.527 850.98 351.864 809.444C351.844 801.469 350.023 791.086 349.119 783.009C348.182 773.807 347.538 764.578 347.189 755.335C345.386 707.037 351.056 656.641 350.992 608.262C350.989 606.122 352.077 603.777 353.691 602.316C355.479 601.519 355.578 601.592 357.576 602.006C358.949 602.875 359.756 603.572 360.179 605.2C361.372 609.789 359.78 666.665 359.066 675.642C357.897 676.974 355.278 679.609 354.806 681.058C356.507 679.671 357.518 678.761 359.061 677.2C358.961 699.871 358.317 723.127 359.844 745.741C360.819 760.185 359.938 771.719 359.447 786.089C359.167 797.304 359.213 808.524 359.583 819.736C360.101 835.785 363.627 851.695 363.935 867.74C364.278 885.61 361.706 903.306 360.978 921.163C359.869 948.381 365.657 975.503 362.472 1002.78C362.253 1004.66 361.845 1008.62 360.955 1010.2C357.391 1006.57 350.463 999.715 346.737 996.691Z"/><path fill="#942625" transform="scale(0.829241 0.828993)" d="M148.969 651.921C181.123 631.333 209.5 611.296 235.248 582.836C240.678 576.75 245.708 570.318 250.306 563.581C253.177 559.316 261.403 542.985 267.183 546.469C269.284 550.114 266.46 554.99 264.25 558.078C256.137 569.411 247.059 580.125 238.19 590.887C230.939 598.845 224.032 610.448 215.759 617.243C201.011 629.354 184.185 641.262 168.665 652.245C169.743 659.792 170.133 671.274 170.569 679.06C171.993 705.319 172.236 731.63 171.296 757.911C170.921 767.691 169.516 779.227 169.444 788.626C169.374 797.691 173.228 808.869 172.877 819.173C170.555 816.985 168.042 814.377 165.278 812.878C166.789 814.967 170.319 818.692 172.69 819.61C175.199 826.869 173.247 859.21 171.858 866.845L163.104 875.518C165.737 827.269 162.941 778.859 162.155 730.594C161.747 705.48 162.038 679.933 164.553 654.932C158.474 658.297 147.737 664.41 140.973 660.086C135.153 651.221 144.703 628.428 146.591 618.428C147.782 612.121 148.114 604.952 150.291 599.063C150.623 598.166 152.929 597.314 153.945 597.184C166.068 602.035 152.385 643.07 148.969 651.921ZM181.334 640.216C180.035 638.79 178.695 637.059 177.041 636.185L176.421 636.37C178.067 638.024 179.168 639.462 181.334 640.216Z"/><path fill="#D1A19F" fill-opacity="0.4509804" transform="scale(0.829241 0.828993)" d="M176.421 636.37L177.041 636.185C178.695 637.059 180.035 638.79 181.334 640.216C179.168 639.462 178.067 638.024 176.421 636.37Z"/><path fill="#942625" transform="scale(0.829241 0.828993)" d="M419.468 245.066C429.92 245.773 426.178 264.507 425.712 272.105C425.265 279.402 425.095 286.713 425.202 294.022C425.406 308.037 426.425 322.172 426.831 336.227C427.265 351.27 425.614 366.118 426.32 381.042C426.988 395.138 426.007 408.596 424.991 422.618C422.556 425.508 420.105 427.791 417.514 430.99C419.965 429.259 422.549 426.585 424.745 424.451C424.035 444.567 421.099 458.289 425.791 478.661C428.034 488.4 428.698 504.053 428.55 514.095C428.092 518.867 426.797 525.403 421.669 527.249C412.233 526.936 415.991 505.041 415.766 498.032C413.709 433.977 414.602 369.785 415.596 305.716L416.509 266.843C416.715 260.372 415.492 249.953 419.468 245.066ZM426.06 327.976C424.584 325.693 419.302 321.319 416.991 319.621L416.58 319.649C417.308 321.726 423.875 327.24 426.06 327.976Z"/><path fill="#D1A19F" fill-opacity="0.25098041" transform="scale(0.829241 0.828993)" d="M416.58 319.649L416.991 319.621C419.302 321.319 424.584 325.693 426.06 327.976C423.875 327.24 417.308 321.726 416.58 319.649Z"/><path fill="#942625" transform="scale(0.829241 0.828993)" d="M681.165 775.33C684.046 779.806 683.474 791.988 683.758 797.626C684.213 806.969 685.13 816.283 686.504 825.535C691.643 860.102 700.085 893.329 707.116 927.486C709.205 937.633 732.236 964.881 726.904 971.676C714.71 973.085 704.659 933.925 700.503 924.625C689.121 899.155 685.073 875.372 681.317 848.242L674.357 800.487C672.463 787.876 670.497 774.555 668.436 761.955C666.688 751.27 663.346 740.584 662.021 729.537C659.948 712.263 661.037 695.183 657.037 678.191C656.076 674.282 653.47 667.737 659.332 666.865C665.776 669.057 665.152 685.6 665.852 691.533C668.121 710.752 672.455 729.574 676.142 748.543C677.602 756.054 680.998 766.97 681.375 774.325C677.916 771.271 673.16 766.585 669.697 764.13L670.422 764.686L670.275 764.963C673.069 767.94 677.912 773.095 681.165 775.33ZM666.668 741.411C668.462 739.771 671.107 737.611 672.337 735.634L671.913 735.157C670.773 736.288 666.53 740.102 666.412 741.201L666.668 741.411Z"/><path fill="#D1A19F" fill-opacity="0.20392157" transform="scale(0.829241 0.828993)" d="M671.913 735.157L672.337 735.634C671.107 737.611 668.462 739.771 666.668 741.411L666.412 741.201C666.53 740.102 670.773 736.288 671.913 735.157Z"/><path fill="#942625" transform="scale(0.829241 0.828993)" d="M219.463 164.307C220.97 164.16 222.701 163.964 224.16 164.479C225.187 164.842 226.152 165.678 226.55 166.705C231.026 178.266 186.983 206.95 183.15 218.041C181.152 223.822 195.653 229.848 198.208 235.282C201.9 243.135 188.931 255.683 186.131 262.934L185.863 263.64C189.341 279.596 197.135 290.912 204.403 305.269C208.74 313.312 212.491 321.753 217.113 329.629C224.794 342.713 247.369 371.632 241.45 387.629C239.65 387.668 237.162 387.737 235.912 386.179C225.588 373.312 222.194 351.392 214.647 336.489C211.699 330.706 207.364 325.825 203.485 320.661C183.873 294.555 161.943 267.359 188.587 237.15C182.263 232.321 170.877 223.574 173.458 214.628C176.828 202.948 191.053 191.663 199.375 183.176C205.79 176.633 211.922 168.882 219.463 164.307Z"/><path fill="#942625" transform="scale(0.829241 0.828993)" d="M180.894 180.101C184.04 180.66 185.051 181.405 185.932 184.317C185.374 186.75 184.172 187.896 181.963 189.208C157.253 203.885 135.051 219.823 112.062 237.012C111.073 247.383 110.781 261.482 110.313 272.066C108.586 304.356 108.503 336.712 110.066 369.01C107.806 370.99 105.583 373.012 103.4 375.075L103.322 375.207L102.927 375.032C102.147 365.929 102.097 356.628 101.519 347.485C100.15 325.83 93.5624 248.444 104.097 232.644C107.701 227.238 113.925 223.602 118.867 219.534C136.225 205.245 146.414 196.336 166.861 185.976C171.253 183.75 176.057 181.118 180.894 180.101Z"/><path fill="#942625" transform="scale(0.829241 0.828993)" d="M158.539 431.801C158.511 431.673 158.483 431.546 158.455 431.418C157.306 409.351 161.121 387.146 160.88 365.052C160.818 359.388 160.483 351.435 166.208 348.375L167.817 348.358C168.961 349.576 169.267 350.003 169.119 352.011C168.364 360.381 167.921 368.501 167.567 376.889C166.93 391.991 168.557 406.928 168.545 421.932C168.528 444.968 168.007 467.984 168.54 491.042C168.798 502.174 165.949 513.763 165.509 524.861C164.952 536.067 172.019 562.72 166.298 572.878C164.517 573.494 165.249 573.411 163.19 572.728C155.64 565.696 160.69 541.321 159.976 531.188C158.282 507.16 156.958 483.216 157.441 459.12C157.618 450.247 157.278 441.443 158.245 432.578C160.53 434.756 164.497 438.805 167.05 440.229C164.87 437.45 161.665 433.435 158.539 431.801Z"/><path fill="#942625" transform="scale(0.829241 0.828993)" d="M171.262 869.028C171.473 870.119 170.201 882.627 170.251 885.42C171.035 928.649 168.395 971.604 166.206 1014.76C170.921 1014.67 175.638 1014.73 180.349 1014.96C183.668 1017.78 188.851 1023.39 191.543 1026.78C187.482 1026.81 182.952 1026.59 178.855 1026.49L164.362 1024.93C162.71 1026.04 162.108 1026.39 160.29 1027.19C158.959 1027.09 158.17 1027.15 157.277 1026.05C150.644 1017.84 157.038 967.901 157.677 955.226C158.231 944.247 157.748 933.278 158.621 922.299C159.846 906.895 162.21 891.684 163.246 876.216C165.364 874.61 169.163 870.936 171.262 869.028ZM165.672 998.814C163.884 996.474 157.93 989.866 155.205 989.157C157.251 991.59 162.546 997.314 165.079 998.941L165.672 998.814Z"/><path fill="#C88988" fill-opacity="0.21960784" transform="scale(0.829241 0.828993)" d="M155.205 989.157C157.93 989.866 163.884 996.474 165.672 998.814L165.079 998.941C162.546 997.314 157.251 991.59 155.205 989.157Z"/><path fill="#942625" transform="scale(0.829241 0.828993)" d="M355.231 534.375C351.982 512.447 353.662 493.32 353.555 471.444C353.773 460.538 349.711 444.661 351.223 434.019C354.076 413.945 354.619 394.959 354.657 374.692C354.663 371.236 354.777 358.263 360.652 360.57C361.421 361.854 361.659 362.945 361.635 364.434C361.345 382.702 362.202 400.71 362.833 418.94C364.054 454.231 367.136 490.625 366.062 525.911L365.158 525.609C362.266 527.351 357.796 531.854 355.231 534.375ZM363.357 452.814C362.911 449.832 356.064 444.068 353.453 441.669L352.454 441.797C353.984 444.041 361.009 450.486 363.357 452.814Z"/><path fill="#C88988" fill-opacity="0.3137255" transform="scale(0.829241 0.828993)" d="M352.454 441.797L353.453 441.669C356.064 444.068 362.911 449.832 363.357 452.814C361.009 450.486 353.984 444.041 352.454 441.797Z"/><path fill="#942625" transform="scale(0.829241 0.828993)" d="M256.077 149.858C248.475 142.509 238.303 136.362 238.421 124.384C238.501 116.233 242.212 111.025 248.162 104.761C262.826 89.3206 289.083 91.6265 292.063 115.445C292.453 118.56 289.861 123.263 286.531 124.766C279.431 124.049 283.345 107.415 271.682 104.919C259.753 102.367 243.001 119.439 252.658 128.488C270.964 145.64 272.382 134.105 266.9 161.304C275.906 162.37 288.007 162.619 294.496 169.282L294.677 170.161C291.298 171.441 280.593 168.745 276.26 168.491C274.117 168.366 269.617 168.342 267.782 168.172C266.654 166.1 263.479 162.824 261.702 161.201L260.485 161.648L260.236 160.704L261.16 160.838L260.588 160.595L260.394 161.093C262.017 163.516 265.115 166.302 267.283 168.404C265.867 169.004 262.988 169.794 261.456 169.934C254.775 170.546 238.806 176.584 233.565 171.218C231.109 161.762 251.054 163.025 257.691 161.886C257.198 157.871 256.66 153.861 256.077 149.858Z"/><path fill="#942625" transform="scale(0.829241 0.828993)" d="M109.68 370.663C110.767 372.264 110.573 378.28 110.933 380.48C113.879 398.455 111.965 415.95 112.572 433.917C113.262 454.371 116.22 474.941 117.471 495.372C118.491 511.64 118.097 527.957 118.462 544.251C118.085 546.286 119.583 548.257 119.58 550.096C119.573 554.608 118.419 559.299 114.226 561.254C107.047 553.965 109.676 534.804 108.452 525.042C104.023 489.707 106.326 454.287 104.368 418.863C104.034 412.812 103.076 406.458 102.915 400.432C102.709 392.752 102.87 384.89 102.914 377.192C104.742 374.951 107.485 372.636 109.68 370.663Z"/><path fill="#942625" transform="scale(0.829241 0.828993)" d="M517.15 579.96C520.651 569.106 521.253 556.287 524.357 544.692C527.838 530.001 532.824 515.586 536.148 500.867C540.144 483.172 542.123 465.074 546.827 447.435C548.543 440.999 546.481 430.505 547.527 423.824C548.927 422.377 549.053 422.026 550.922 421.73C556.297 424.597 555.178 435.925 555.238 441.403C555.603 474.63 548.032 507.619 538.063 539.132C535.622 547.939 532.467 555.498 529.895 563.887L522.356 585.958C519.928 584.301 518.501 582.509 517.15 579.96Z"/><path fill="#B46D6D" transform="scale(0.829241 0.828993)" d="M529.895 563.887C526.354 558.119 524.198 550.69 528.175 544.371C530.633 540.467 533.872 540.019 538.063 539.132C535.622 547.939 532.467 555.498 529.895 563.887Z"/><path fill="#942625" transform="scale(0.829241 0.828993)" d="M531.793 747.908C537.483 753.353 532.945 802.313 531.647 811.329L526.052 806.524L525.309 806.692L525.242 806.034L524.847 805.95C526.074 808.267 529.524 810.84 531.666 812.389C529.983 824.752 526.653 833.316 523.395 845.255C519.895 858.08 517.452 870.352 512.612 882.869C509.972 889.697 504.172 899.009 502.135 905.553C496.947 922.217 494.83 937.172 486.499 952.85C484.583 956.882 482.514 959.557 479.668 962.937C477.776 939.589 492.148 923.762 498.322 903.025C508.192 869.87 516.966 835.755 524.139 801.916C526.802 789.352 527.499 775.04 527.652 762.227C527.725 756.533 528.068 752.467 531.793 747.908Z"/><path fill="#942625" transform="scale(0.829241 0.828993)" d="M595.649 761.363C596.928 761.848 598.381 762.67 599.229 763.78C602.674 768.287 596.151 805.294 594.898 812.472C593.031 814.194 591.1 815.994 589.839 818.193C591.442 817.57 593.189 815.399 594.451 814.059C593.267 830.386 588.362 849.737 586.987 867.441C584.947 865.414 583.078 863.618 580.942 861.694L580.176 861.979L580.306 861.225L579.5 860.785L579.755 861.588L579.923 861.052L579.812 861.68L580.261 861.293L580.212 862.175C582.058 864.387 584.63 866.478 586.835 868.399C585.843 890.968 578.586 908.452 581.862 932.759C582.286 938.233 586.119 950.669 581.631 954.224C579.517 954.702 580.485 954.846 578.62 953.84C577.434 952.199 576.21 948.848 576.178 946.806C575.9 929.123 573.411 909.889 574.237 892.372C575.627 862.913 583.252 834.366 588.02 805.608C589.449 796.966 590.577 788.277 591.403 779.556C591.886 774.753 592.297 769.75 592.902 764.951C593.066 763.655 594.689 762.268 595.649 761.363Z"/><path fill="#942625" transform="scale(0.829241 0.828993)" d="M184.63 459.119C185.686 461.847 185.051 472.54 184.406 475.759C183.433 480.609 181.155 486.581 176.976 489.51C168.218 490.994 172.49 460.952 173.476 456.51C179.175 430.831 176.095 407.714 175.213 382.094C175.061 377.7 175.158 370.121 180.595 369.542C189.287 373.935 187.369 432.194 185.175 443.196C184.374 447.211 185.137 453.754 184.828 458.172C183.207 456.312 178.248 450.136 176.224 449.867L176.747 451.049L177.55 450.21L176.975 451.379C178.708 453.368 182.617 457.581 184.63 459.119Z"/><path fill="#942625" transform="scale(0.829241 0.828993)" d="M374.054 520.257C370.884 471.702 365.151 423.679 366.245 375.062C366.358 370.05 360.081 359.44 365.561 353.509C366.694 352.206 367.196 352.075 368.806 351.888C376.218 356.577 371.91 394.101 372.894 403.11C375.106 423.378 374.413 444.475 376.301 464.549C375.004 463.391 373.29 461.682 371.783 460.969C378.068 468.562 378.734 468.054 372.594 475.897C374.119 475.351 376.338 472.416 377.272 471.08C378.132 486.268 379.928 504.804 380.274 519.542C377.777 520.069 376.539 520.126 374.054 520.257Z"/><path fill="#942625" transform="scale(0.829241 0.828993)" d="M776.438 909.627C774.648 907.908 773.028 906.022 771.599 903.993C761.279 889.546 757.679 872.916 751.23 856.729C747.368 847.036 742.222 837.974 738.949 828.007C736.513 820.586 727.138 778.814 728.146 773.678C728.477 771.989 728.856 770.93 730.241 769.945L731.315 770.348C736.377 775.745 735.093 786.171 736.864 793.132C741.005 809.413 748.08 825.563 753.737 841.668C754.809 844.038 757.956 850.446 757.892 852.701C766.35 867.752 775.258 892.268 776.438 909.627ZM756.473 851.362C754.707 849.283 752.257 846.796 749.842 845.537C751.693 848.054 753.356 850.509 756.473 851.362Z"/><path fill="#C88988" fill-opacity="0.36078432" transform="scale(0.829241 0.828993)" d="M749.842 845.537C752.257 846.796 754.707 849.283 756.473 851.362C753.356 850.509 751.693 848.054 749.842 845.537Z"/><path fill="#A53E3B" transform="scale(0.829241 0.828993)" d="M749.842 845.537L750.025 844.736C751.493 842.954 751.699 842.735 753.737 841.668C754.809 844.038 757.956 850.446 757.892 852.701L757.233 852.572L756.473 851.362C754.707 849.283 752.257 846.796 749.842 845.537Z"/><path fill="#942625" transform="scale(0.829241 0.828993)" d="M694.302 527.156C690.004 502.962 691.093 477.457 691.646 453.023C691.79 446.666 685.338 428.816 693.246 425.81C695.002 426.072 694.933 426.009 696.352 427.04C699.691 435.38 698.544 451.35 699.33 461.524C700.822 479.764 702.449 497.994 704.211 516.21C701.866 518.684 695.619 524.765 694.302 527.156Z"/><path fill="#942625" transform="scale(0.829241 0.828993)" d="M374.054 520.257C376.539 520.126 377.777 520.069 380.274 519.542L381.133 526.05L382.859 532.752C386.623 532.578 391.983 532.171 395.623 532.407C398.78 532.268 402.221 531.67 405.375 531.2C409.961 530.885 415.371 530.226 415.958 536.159C414.206 540.845 409.072 541.567 404.585 541.587L395.396 541.778C394.919 544.84 394.542 546.87 395.286 549.986L395.674 554.975C400.267 555.356 403.807 555.614 408.361 556.529C407.067 558.635 404.491 562.296 404.318 564.539L405.347 564.987C403.991 565.327 395.689 565.665 394.199 565.54C382.779 564.583 385.976 550.475 387.015 543.579C376.654 542.357 374.469 541.06 374.362 530.348L374.054 520.257Z"/><path fill="#942625" transform="scale(0.829241 0.828993)" d="M405.375 531.2C409.961 530.885 415.371 530.226 415.958 536.159C414.206 540.845 409.072 541.567 404.585 541.587C405.194 540.67 405.106 533.626 405.375 531.2Z"/><path fill="#B46D6D" transform="scale(0.829241 0.828993)" d="M395.623 532.407C398.78 532.268 402.221 531.67 405.375 531.2C405.106 533.626 405.194 540.67 404.585 541.587L395.396 541.778L394.113 541.492C395.263 538.282 395.377 535.771 395.623 532.407Z"/><path fill="#B46D6D" transform="scale(0.829241 0.828993)" d="M374.054 520.257C376.539 520.126 377.777 520.069 380.274 519.542L381.133 526.05C378.745 527.434 376.533 528.632 374.362 530.348L374.054 520.257Z"/><path fill="#A53E3B" transform="scale(0.829241 0.828993)" d="M394.113 541.492L395.396 541.778C394.919 544.84 394.542 546.87 395.286 549.986C392.959 549.534 392.336 549.31 391.463 547.08C391.716 544.713 392.795 543.509 394.113 541.492Z"/><path fill="#942625" transform="scale(0.829241 0.828993)" d="M331.217 179.329C337.766 180.087 341.077 182.809 346.251 186.673C363.094 199.248 381.059 210.352 397.863 222.969C401.357 225.592 402.629 227.697 400.14 231.547C399.126 231.597 395.689 231.77 394.818 231.411C385.428 227.534 378.042 217.166 369.911 210.818C358.152 201.637 340.823 196.078 330.986 184.855C329.842 183.549 330.718 180.759 331.217 179.329Z"/><path fill="#942625" transform="scale(0.829241 0.828993)" d="M355.231 534.375C357.796 531.854 362.266 527.351 365.158 525.609L366.062 525.911L365.923 534.478C365.813 560.564 366.608 566.412 371.368 592.457C371.898 595.193 372.523 598.985 373.221 601.59C370.204 600.598 365.61 599.776 362.392 599.101C361.815 594.264 361.361 589.415 361.03 584.555C359.91 576.739 359.242 563.407 358.561 555.049L355.231 534.375Z"/><path fill="#B46D6D" transform="scale(0.829241 0.828993)" d="M355.231 534.375C357.796 531.854 362.266 527.351 365.158 525.609L366.062 525.911L365.923 534.478C365.898 534.697 365.67 537.174 365.676 537.105C365.45 539.719 359.668 553.445 358.561 555.049L355.231 534.375Z"/><path fill="#B46D6D" transform="scale(0.829241 0.828993)" d="M361.03 584.555L361.42 584.859C365.292 587.915 366.285 589.924 370.811 592.175L371.368 592.457C371.898 595.193 372.523 598.985 373.221 601.59C370.204 600.598 365.61 599.776 362.392 599.101C361.815 594.264 361.361 589.415 361.03 584.555Z"/><path fill="#942625" transform="scale(0.829241 0.828993)" d="M121.834 567.781C130.646 568.619 129.421 576.447 129.408 583.173C136.119 584.651 159.695 580.395 162.067 585.941C160.476 588.345 158.387 588.619 155.666 589.342C146.828 591.653 130.505 596.878 122.028 592.948C115.639 589.986 118.636 572.819 121.834 567.781Z"/><path fill="#942625" transform="scale(0.829241 0.828993)" d="M362.392 599.101C365.61 599.776 370.204 600.598 373.221 601.59C376.289 614.624 378.929 629.051 381.819 642.231C382.272 644.293 381.61 648.078 379.019 648.627C367.476 645.193 363.996 609.968 362.392 599.101Z"/><path fill="#942625" transform="scale(0.829241 0.828993)" d="M297.406 472.736C298.4 472.681 299.395 472.639 300.391 472.611C306.189 472.446 334.257 472.548 337.147 475.789C337.696 476.404 337.391 476.753 337.254 477.482C335.603 479.236 333.53 479.718 331.211 480.575C323.709 482.257 314.225 481.598 306.481 482.217C302.203 482.559 294.873 482.859 292.397 478.695C292.201 474.713 293.797 473.582 297.406 472.736Z"/><path fill="#942625" transform="scale(0.829241 0.828993)" d="M123.885 556.443C130.57 556.473 145.189 555.48 150.114 558.986C151.778 562.6 147.511 563.999 144.795 565.388C138.515 566.324 131.077 566.102 124.691 566.005C121.416 565.956 118.419 565.245 116.994 562.072C117.559 557.772 120.128 557.468 123.885 556.443Z"/><path fill="#942625" transform="scale(0.829241 0.828993)" d="M269.496 441.552C272.952 441.612 273.938 441.507 275.896 444.219C276.435 448.209 272.454 453.328 270.45 457.891C273.523 456.329 273.925 455.655 276.907 456.233C279.243 458.555 277.339 461.408 275.593 463.666C262.59 471.254 256.54 449.52 269.496 441.552Z"/><path fill="#942625" transform="scale(0.829241 0.828993)" d="M425.039 547.402C424.8 542.561 424.075 530.868 430.895 530.856C437.544 534.711 435.093 547.345 433.143 553.366C432.362 555.228 431.379 557.403 430.7 559.27C429.43 557.755 427.015 555.486 425.533 554.014C425.263 552.248 425.164 549.277 425.039 547.402Z"/><path fill="#B46D6D" transform="scale(0.829241 0.828993)" d="M425.039 547.402C428.593 549.111 430.421 550.404 433.143 553.366C432.362 555.228 431.379 557.403 430.7 559.27C429.43 557.755 427.015 555.486 425.533 554.014C425.263 552.248 425.164 549.277 425.039 547.402Z"/><path fill="#942625" transform="scale(0.829241 0.828993)" d="M208.979 482.207C215.038 482.377 236.766 482.809 240.758 485.427L240.893 486.42L239.146 487.552C230.863 490.538 225.449 490.615 216.851 490.593C214.147 487.873 211.522 485.077 208.979 482.207Z"/><path fill="#B46D6D" transform="scale(0.829241 0.828993)" d="M425.533 554.014C427.015 555.486 429.43 557.755 430.7 559.27C426.95 564.012 423.028 564.573 417.269 564.685C413.053 564.647 409.557 564.745 405.347 564.987L404.318 564.539C404.491 562.296 407.067 558.635 408.361 556.529C411.576 557.045 414.482 557.589 417.745 557.672C419.955 557.631 421.359 557.642 423.572 557.244C425.365 555.878 424.791 556.512 425.533 554.014Z"/><path fill="#942625" transform="scale(0.829241 0.828993)" d="M425.533 554.014C427.015 555.486 429.43 557.755 430.7 559.27C426.95 564.012 423.028 564.573 417.269 564.685C417.302 560.755 418.942 560.814 419.121 557.983L417.745 557.672C419.955 557.631 421.359 557.642 423.572 557.244C425.365 555.878 424.791 556.512 425.533 554.014Z"/><path fill="#942625" transform="scale(0.829241 0.828993)" d="M199.207 481.158C208.316 480.702 209.757 484.181 215.191 490.496L206.845 490.459C203.695 490.352 192.859 491.526 192.067 487.417C191.151 482.666 195.641 481.779 199.207 481.158Z"/><path fill="#942625" transform="scale(0.829241 0.828993)" d="M182.678 1015.74C189.837 1015.77 199.325 1016.89 206.503 1017.68L201.903 1022.46C201.35 1023.1 200.788 1023.73 200.215 1024.35C193.793 1031.27 187.333 1020.63 182.678 1015.74Z"/><path fill="#B46D6D" transform="scale(0.829241 0.828993)" d="M517.15 579.96C518.501 582.509 519.928 584.301 522.356 585.958L521.043 591.654C517.784 593.486 516.411 594.332 512.567 594.732C514.276 590.019 515.715 584.794 517.15 579.96Z"/><path fill="#A53E3B" transform="scale(0.829241 0.828993)" d="M264.899 207.749C269.31 203.857 283.187 189.224 287.253 188.29C283.188 193.804 273.207 201.63 270.66 206.862C268.716 208.26 268.883 207.371 266.839 209.566C266.101 208.057 266.622 208.738 264.899 207.749Z"/><path fill="#942625" transform="scale(0.829241 0.828993)" d="M279.695 944.261C279.659 941.711 279.266 932.934 280.311 931.215L280.957 931.912C282.399 933.315 285.965 936.363 286.247 938.04L279.695 944.261Z"/><path fill="#C88988" fill-opacity="0.24705882" transform="scale(0.829241 0.828993)" d="M470.767 750.796C468.526 748.606 466.657 746.649 464.542 744.336C469.105 746.63 469.062 749.253 472.959 749.955L472.987 750.46C467.919 754.064 462.423 760.85 457.03 765.493C457.398 764.008 469.113 752.442 470.767 750.796Z"/><path fill="#B46D6D" fill-opacity="0.93333334" transform="scale(0.829241 0.828993)" d="M288.104 188.227L288.648 189.586C282.501 193.947 276.782 202.032 270.66 206.862C273.207 201.63 283.188 193.804 287.253 188.29L288.104 188.227Z"/><path fill="#D1A19F" fill-opacity="0.28235295" transform="scale(0.829241 0.828993)" d="M267.727 655.693C267.385 651.747 267.678 642.693 267.889 638.394C268.822 640.505 269.005 662.67 268.791 666.296C268.159 662.986 268.552 659.612 267.727 655.693Z"/><path fill="#C88988" fill-opacity="0.23137255" transform="scale(0.829241 0.828993)" d="M346.737 996.691C350.463 999.715 357.391 1006.57 360.955 1010.2L360.67 1010.8C356.813 1008.52 350.64 1000.6 347.218 998.83L346.521 1000.13C346.347 998.728 346.549 998.104 346.737 996.691Z"/><path fill="#C88988" fill-opacity="0.40000001" transform="scale(0.829241 0.828993)" d="M681.165 775.33C677.912 773.095 673.069 767.94 670.275 764.963L670.422 764.686L669.697 764.13C673.16 766.585 677.916 771.271 681.375 774.325L681.165 775.33Z"/><path fill="#D1A19F" fill-opacity="0.23137255" transform="scale(0.829241 0.828993)" d="M184.63 459.119C182.617 457.581 178.708 453.368 176.975 451.379L177.55 450.21L176.747 451.049L176.224 449.867C178.248 450.136 183.207 456.312 184.828 458.172L184.63 459.119Z"/><path fill="#C88988" fill-opacity="0.29411766" transform="scale(0.829241 0.828993)" d="M158.539 431.801C161.665 433.435 164.87 437.45 167.05 440.229C164.497 438.805 160.53 434.756 158.245 432.578L158.539 431.801Z"/><path fill="#D1A19F" fill-opacity="0.098039217" transform="scale(0.829241 0.828993)" d="M262.667 775.663L262.659 776.329C259.029 779.603 258.344 781.127 254.017 783.804C256.233 781.263 259.751 777.106 262.667 775.663Z"/><path fill="#D1A19F" fill-opacity="0.24705882" transform="scale(0.829241 0.828993)" d="M415.899 882.097C413.714 880.153 412.034 878.587 410.002 876.489L410.08 875.58L409.172 875.143L409.593 875.971L409.288 875.084C411.92 876.442 414.366 879.141 416.514 881.261L415.899 882.097Z"/><path fill="#C88988" fill-opacity="0.24313726" transform="scale(0.829241 0.828993)" d="M282.074 931.651C284.08 933.418 286.38 935.148 287.706 937.399C287.184 938.407 287.458 938.097 286.613 938.828L286.247 938.04C285.965 936.363 282.399 933.315 280.957 931.912L282.074 931.651Z"/><path fill="#D1A19F" fill-opacity="0.2" transform="scale(0.829241 0.828993)" d="M267.283 168.404C265.115 166.302 262.017 163.516 260.394 161.093L260.588 160.595L261.16 160.838L260.236 160.704L260.485 161.648L261.702 161.201C263.479 162.824 266.654 166.1 267.782 168.172L267.283 168.404Z"/><path fill="#C88988" fill-opacity="0.21960784" transform="scale(0.829241 0.828993)" d="M172.69 819.61C170.319 818.692 166.789 814.967 165.278 812.878C168.042 814.377 170.555 816.985 172.877 819.173L172.69 819.61Z"/><path fill="#C88988" fill-opacity="0.23529412" transform="scale(0.829241 0.828993)" d="M548.603 1016.3C547.24 1015.52 544.581 1013.55 544.499 1011.93C546.469 1012.51 547.583 1014.18 549.018 1015.79L548.603 1016.3Z"/></svg>