<?xml version="1.0" encoding="utf-8" ?><svg xmlns="http://www.w3.org/2000/svg" xmlns:xlink="http://www.w3.org/1999/xlink" width="433" height="454" viewBox="0 0 433 454"><path fill="#9A1F16" d="M213.525 131.516C213.025 129.758 212.728 127.948 212.639 126.122C211.003 97.8964 235.311 57.5818 253.593 36.7945C258.243 31.4568 271.985 17.5424 279.39 17.4296C294.276 17.2029 309.651 34.2215 322.069 41.1865C324.018 42.2794 323.633 46.5417 321.626 47.5522C318.185 49.285 313.344 48.906 309.647 50.0893C286.349 56.605 269.475 74.7658 253.175 91.5712C252.16 92.6766 250.961 93.9217 250.042 95.0798L253.702 93.3432C254.649 92.4969 256.838 91.7119 258.097 91.206C264.356 88.6901 270.322 86.7982 277.173 86.6385C270.123 94.2823 257.389 100.387 248.326 105.5C237.039 111.868 222.789 125.975 215.58 136.631C219.301 137.866 222.591 139.935 226.088 141.115C233.66 138.998 241.588 134.875 248.731 131.468C264.695 123.853 280.508 115.184 298.345 112.966C312.208 111.243 332.836 109.947 343.35 121.008C337.605 121.011 331.86 120.907 326.119 120.695C313.831 120.131 303.452 118.955 291.192 121.959C283.888 123.748 276.043 126.705 269.196 129.808C266.607 130.981 256.599 135.604 255.174 136.946L255.091 137.373C256.16 137.892 264.301 137.012 265.99 136.929C272.089 136.669 278.196 136.679 284.293 136.96C285.455 137.01 289.531 137.166 290.576 137.415C291.579 139.092 295.146 142.6 296.658 144.142C295.571 144.178 293.919 144.188 292.89 144.302C282.582 143.972 273.601 143.77 263.342 144.612C258.51 145.009 234.017 149.215 231.322 148.343C231.471 146.2 236.951 143.434 238.697 142.315C234.99 142.768 232.153 143.316 228.443 142.855C233.342 149.485 226.13 150.892 222.129 154.956C219.118 158.015 216.637 161.406 213.558 164.383C227.795 168.408 242.721 187.956 249.542 200.475C250.285 201.839 251.059 203.194 251.579 204.665C271.903 200.032 292.123 194.952 312.223 189.427C319.958 187.301 327.662 185.061 335.332 182.707C340.97 180.976 357.859 175.105 362.94 175.185C364.368 174.766 367.079 174.354 368.054 173.858L368.189 173.399C367.541 172.39 365.906 171.618 364.794 170.959C355.079 166.855 337.239 157.827 330.828 149.33C346.038 150.996 357.866 157.874 369.586 167.32C371.748 169.062 376.03 172.246 377.798 174.102C376.875 177.825 378.948 185.342 379.613 189.63C380.126 192.766 380.416 195.934 380.482 199.111C380.897 231.161 378.59 263.193 377.152 295.213C376.903 302.186 376.697 309.162 376.534 316.138C376.481 318.146 376.264 326.276 375.825 328.198C376.144 344.397 376.682 362.859 372.857 378.672C371.439 384.533 370.303 385.465 364.891 388.236C346.799 398.033 325.431 403.297 305.95 409.436L304.352 409.958C297.701 411.615 289.359 414.208 282.695 416.204C263.279 422.19 243.92 428.356 224.619 434.703C212.524 438.56 201.281 442.633 188.652 444.121C185.601 444.481 179.952 447.888 176.546 447.009C168.381 444.74 161.087 439.016 153.827 434.649C140.47 426.612 127.767 420.112 118.245 407.447C101.607 404.928 95.9966 399.898 89.5223 384.18C86.8554 377.706 87.1028 369.061 86.43 362.014C86.2471 361.046 86.2777 360.437 86.2786 359.471C86.0389 357.859 85.9756 355.222 85.8195 353.458C85.2894 347.542 84.8204 341.621 84.4126 335.695C83.2468 319.868 81.8392 299.889 81.9686 284.112C82.0978 283.035 81.8159 279.259 82.4697 278.655C83.3115 277.876 84.3098 277.038 85.1261 276.052L85.9738 276.105C86.4605 277.979 87.7025 277.007 88.5122 279.647C89.0129 296.477 89.9931 313.288 91.4516 330.062C92.4916 341.544 93.826 352.872 94.7667 364.419C95.1227 366.226 95.2933 369.456 95.3539 371.341C95.6735 378.007 94.6811 384.373 95.0832 390.83C99.6503 393.052 103.857 394.814 108.181 397.521C111.187 399.402 115.374 403.277 118.281 404.619C123.276 406.926 128.272 408.595 133.365 411.058C143.056 415.746 151.556 421.741 160.862 427.094C164.68 429.29 168.424 432.011 171.971 434.604C173.755 435.908 178.778 440.511 180.248 441.263C181.218 442.111 182.434 442.349 183.673 442.707C188.922 439.977 194.067 437.299 199.708 435.428C206.07 433.319 212.494 431.385 218.887 429.371L247.212 420.415C250.375 419.427 262.689 415.198 265.121 414.874C260.749 401.605 261.22 388.311 260.695 374.684L259.389 332.819L258.236 294.411C258.048 288.89 257.457 282.187 257.47 276.875C257.262 275.901 257.247 274.353 257.199 273.317C256.962 272.13 256.912 270.62 256.782 269.396C256.022 262.239 255.336 255.051 254.052 247.962C253.558 242.718 252.609 236.653 251.906 231.389C250.817 225.608 251.631 221.554 252.07 215.9C252.216 214.012 252.185 211.85 252.285 209.882C250.011 210.637 246.547 211.458 244.157 212.119C238.525 213.676 232.905 215.277 227.297 216.921C218.25 219.603 209.355 222.721 200.41 225.646C197.06 226.742 182.029 230.132 179.278 228.821L179.172 228.384C180.416 226.364 189.275 221.59 191.692 220.639C200.538 217.157 210.336 214.874 219.542 212.541C229.411 209.996 239.315 207.588 249.25 205.316C237.174 198.117 229.342 189.95 220.941 178.76C217.079 173.615 211.936 165.504 206.568 162.016L206.201 162.101C206.042 162.826 206.626 166.081 206.705 167.269C206.869 169.446 206.779 171.634 206.438 173.791C203.658 192.004 176.126 201.056 160.714 204.392C158.351 204.904 146.687 207.345 145.407 208.277C145.693 209.171 148.393 209.993 149.358 210.332C155.291 212.421 160.358 215.282 165.464 218.94L169.724 222.049C168.554 223.828 168.295 225.277 167.67 227.308C166.772 226.837 163.821 225.726 162.562 225.151C155.704 221.549 150.311 218.088 144.255 213.167C142.841 212.018 140.827 210.603 139.685 209.241C134.07 210.917 127.983 212.384 122.299 213.815C119.47 214.528 114.135 215.94 111.392 216.179C113.178 222.534 112.803 239.803 112.75 246.89C112.694 255.71 112.687 264.531 112.729 273.351C112.833 286.575 113.269 299.795 114.038 312.997C115.178 335.754 118.165 358.374 119.384 381.113C119.574 384.675 118.5 398.438 116.15 400.931C114.295 400.421 112.003 386.226 111.773 383.942C110.922 375.49 110.558 366.848 109.99 358.365C107.875 330.248 106.663 302.07 106.357 273.875C106.11 256.392 105.024 237.735 108.949 220.685C109.104 220.011 109.879 217.262 109.658 216.899C104.83 217.491 100.065 218.759 95.2553 219.529C85.0028 221.169 60.9023 223.55 51.3772 221.241C48.7158 220.596 46.3635 219.376 44.2154 217.688C43.0944 216.808 42.1217 215.775 41.0475 214.844C42.4961 219.871 44.2379 225.334 45.0561 230.48C45.6135 233.985 45.7588 238.283 45.9367 241.888C46.2737 248.441 46.46 255 46.4955 261.561C46.5916 275.268 46.685 292.448 47.8082 305.934C48.0916 308.269 48.018 311.299 48.0296 313.7L47.9847 315.493C48.1048 318.441 48.1233 321.391 48.0402 324.34C47.511 323.258 42.5219 318.545 41.2349 318.746C40.2266 319.817 41.116 322.765 40.2811 323.928C40.2208 321.351 40.4469 318.823 40.4818 316.251C40.5212 313.354 40.4583 310.472 40.5177 307.572C39.5413 291.124 39.6587 274.595 39.0241 258.132C38.8858 254.544 38.6977 250.856 38.7241 247.275C38.4269 245.169 38.5097 241.571 38.4812 239.34C38.4126 235.552 38.3215 231.765 38.2079 227.978C38.222 221.771 38.7467 218.958 39.7685 212.931C33.5339 203.079 31.6866 191.995 33.8527 180.663C35.0533 174.382 36.7913 169.317 36.951 162.703C37.0542 158.429 40.9957 153.747 44.3531 151.327C50.0361 147.231 56.9147 147.001 63.65 147.388C64.874 147.439 68.4733 145.298 69.8053 144.67C71.8504 143.705 74.1975 142.652 76.4849 142.155C86.8654 139.777 97.5378 140.962 108.034 141.783C113.05 142.176 119.341 142.538 124.23 143.361C127.436 143.507 130.377 144.258 133.542 144.702C138.275 144.996 143.339 146.054 148.123 146.326C161.317 147.079 174.846 147.443 188.046 146.943C186.069 148.611 184.478 149.959 182.205 151.274C180.747 152.117 179.044 152.463 177.893 153.414L177.887 153.73C179.059 153.937 180.203 153.786 181.4 153.706C176.46 158.943 167.052 162.684 160.046 164.205C156.207 165.039 151.922 165.407 148.068 166.14L147.041 166.341C121.871 171.127 98.241 175.047 72.617 176.169C70.9478 175.309 69.028 171.11 66.9162 171.139C67.4124 172.367 70.2942 174.001 70.664 175.837L70.2347 176.244C62.4139 176.209 53.5828 175.242 46.2266 172.534C44.9978 172.081 43.0506 171.094 41.6784 170.516C41.4441 171.459 41.9228 175.606 41.9198 176.995C41.8984 186.934 37.9298 196.59 36.9362 206.309C41.7083 208.407 45.785 212.123 51.202 213.235C56.6429 214.328 62.4241 214.413 67.9446 214.412C93.5346 214.388 118.033 207.866 142.632 201.283C163.125 195.798 194.728 192.579 201.188 167.874C201.867 165.278 202.12 162.522 202.746 159.903L202.804 159.669C202.844 159.613 202.883 159.556 202.923 159.5C202.994 157.641 205.15 155.658 206.615 154.371C207.536 153.821 207.735 153.736 208.348 152.87C208.996 153.085 209.156 153.098 209.813 153.195C210.29 152.934 216.97 146.254 218.16 145.221C216.386 142.924 212.297 138.702 211.021 136.357L211.196 136.02C213.462 135.491 213.209 135.686 214.048 133.608C215.715 130.447 216.57 127.144 218.738 123.237L218.363 122.98C219.719 121.873 223.202 116.894 225.037 115.087C227.209 112.946 229.461 110.888 231.788 108.917C233.296 107.66 237.366 104.455 238.444 103.111C242.093 98.72 244.574 92.7219 248.306 88.402C264.652 69.4805 284.291 49.0576 308.756 41.605C300.275 35.3548 283.289 21.5364 272.324 27.3992C257.368 35.3966 245.79 55.249 237.163 69.4341C230.251 80.8006 225.936 95.6156 222.491 108.353C221.296 112.652 220.079 117.664 218.477 121.734L218.332 122.098C216.967 123.478 215.182 129.815 213.525 131.516ZM277.497 203.16C287.175 211.072 286.779 220.846 286.836 232.204L287.009 249.562C287.343 267.909 288.079 286.246 289.217 304.561C289.326 305.663 289.422 306.765 289.505 307.869C291.473 326.932 293.157 346.024 294.556 365.137C295.501 376.978 297.922 393.868 295.767 405.637C304.766 403.046 313.75 400.503 322.574 397.355C327.474 395.617 332.345 393.798 337.184 391.896C348.757 387.299 356.939 383.534 369.659 383.733C369.112 381.537 368.963 376.536 368.906 374.097C368.594 360.834 368.918 346.841 369.512 333.579C369.485 328.935 370.082 323.444 370.23 318.64C370.886 297.402 372.581 275.969 373.135 254.733C373.558 241.02 373.522 227.297 373.029 213.586C372.828 206.36 371.957 200.286 372.273 192.951C372.514 187.355 373.815 183.987 374.334 179.004L374.367 178.676C374.054 177.542 374.104 176.064 373.618 175.443C372.684 175.334 372.822 175.466 371.808 175.952C369.625 177.457 364.54 178.846 361.826 179.857C339.646 188.118 316.3 193.542 293.379 199.34C289.389 200.349 281.319 202.8 277.497 203.16ZM260.353 228.096L260.672 230.492C261.013 232.556 261.156 234.154 261.324 236.224C261.758 239.588 262.553 244.911 262.512 248.149C263.444 252.844 263.79 257.831 264.288 262.596C265.486 274.073 265.585 285.474 265.834 296.996L266.772 344.96C266.995 353.216 267.42 362.791 267.683 370.882C267.989 380.314 270.054 406.27 267.95 413.96C270.078 412.984 276.109 411.295 278.577 410.618C282.662 409.497 288.056 407.7 292.129 406.89C288.614 399.277 287.846 379.527 287.198 370.741L285.161 344.769C284.102 331.361 282.628 317.798 281.583 304.388C280.446 288.525 279.594 272.643 279.026 256.75C278.899 253.77 278.296 243.571 278.096 240.787C277.666 234.791 278.771 207.284 277.228 203.66C276.227 203.389 273.031 204.486 271.776 204.808L254.25 209.262C258.566 214.177 259.346 221.786 260.353 228.096ZM107.233 211.215C107.628 212.569 109.985 214.421 111.069 215.367C110.776 214.061 108.519 211.516 107.233 211.215ZM160.554 156.345L160.755 156L160.62 155.612L159.356 155.325C154.124 155.374 139.638 152.929 134.25 152.002C131.838 151.481 129.03 151.278 126.438 150.774C112.104 148.876 97.9226 147.36 83.4513 147.724C80.644 147.795 75.853 147.647 73.2727 148.213C72.9543 149.068 72.8368 149.929 71.954 150.362C70.3272 151.159 67.917 151.192 66.1276 151.551C60.5157 152.677 48.1278 155.392 45.6847 161.35C45.4256 161.982 45.4095 162.619 45.7189 163.238C46.7866 165.373 51.0305 166.661 53.1565 167.25C80.3328 174.782 132.407 162.068 160.554 156.345Z"/><path fill="#9A1F16" d="M330.828 149.33C346.038 150.996 357.866 157.874 369.586 167.32C371.748 169.062 376.03 172.246 377.798 174.102C376.875 177.825 378.948 185.342 379.613 189.63C380.126 192.766 380.416 195.934 380.482 199.111C380.897 231.161 378.59 263.193 377.152 295.213C376.903 302.186 376.697 309.162 376.534 316.138C376.481 318.146 376.264 326.276 375.825 328.198L374.865 328.304L374.722 328.51C373.724 329.537 371.142 332.082 370.525 333.162C370.097 333.311 369.884 333.348 369.512 333.579C369.485 328.935 370.082 323.444 370.23 318.64C370.886 297.402 372.581 275.969 373.135 254.733C373.558 241.02 373.522 227.297 373.029 213.586C372.828 206.36 371.957 200.286 372.273 192.951C372.514 187.355 373.815 183.987 374.334 179.004L374.367 178.676C374.054 177.542 374.104 176.064 373.618 175.443C372.684 175.334 372.822 175.466 371.808 175.952L371.639 175.605C370.406 174.852 365.099 175.303 363.171 175.199L362.94 175.185C364.368 174.766 367.079 174.354 368.054 173.858L368.189 173.399C367.541 172.39 365.906 171.618 364.794 170.959C355.079 166.855 337.239 157.827 330.828 149.33Z"/><path fill="#FDFCFD" d="M364.794 170.959C368.221 171.67 373.039 173.632 376.839 174.62C376.398 175.446 374.706 179.227 374.561 179.425L374.367 178.676C374.054 177.542 374.104 176.064 373.618 175.443C372.684 175.334 372.822 175.466 371.808 175.952L371.639 175.605C370.406 174.852 365.099 175.303 363.171 175.199L362.94 175.185C364.368 174.766 367.079 174.354 368.054 173.858L368.189 173.399C367.541 172.39 365.906 171.618 364.794 170.959Z"/><path fill="#B3504C" d="M374.251 220.719C375.547 221.405 378.119 224.058 378.288 225.562C376.697 223.874 374.395 222.617 374.251 220.719Z"/><path fill="#B3504C" d="M378.721 238.63L378.981 238.766L379.07 239.066C378.213 240.46 375.998 242.307 374.725 243.419L374.658 243.542L374.581 243.185C375.137 242.008 377.632 239.785 378.721 238.63Z"/><path fill="#B3504C" d="M371.905 304.472C373.689 304.748 375.026 306.287 375.253 308.026C374.081 307.446 372.438 305.731 371.905 304.472Z"/><path fill="#9A1F16" d="M251.906 231.389C255.07 230.289 256.513 228.507 260.353 228.096L260.672 230.492C261.013 232.556 261.156 234.154 261.324 236.224C261.758 239.588 262.553 244.911 262.512 248.149C260.736 247.52 260.515 246.454 259.587 244.691C259.614 244.669 259.129 245.073 259.16 245.034C257.954 246.5 254.863 246.51 254.052 247.962C253.558 242.718 252.609 236.653 251.906 231.389Z"/><path fill="#C38382" d="M251.906 231.389C255.07 230.289 256.513 228.507 260.353 228.096L260.672 230.492C254.867 231.414 252.865 236.626 253.754 241.897L253.942 242.983C254.967 243.535 255.655 244.09 256.885 243.746C259.128 243.12 261.367 238.35 261.324 236.224C261.758 239.588 262.553 244.911 262.512 248.149C260.736 247.52 260.515 246.454 259.587 244.691C259.614 244.669 259.129 245.073 259.16 245.034C257.954 246.5 254.863 246.51 254.052 247.962C253.558 242.718 252.609 236.653 251.906 231.389Z"/><path fill="#B3504C" d="M47.8082 305.934C48.0916 308.269 48.018 311.299 48.0296 313.7L47.9847 315.493C48.1048 318.441 48.1233 321.391 48.0402 324.34C47.511 323.258 42.5219 318.545 41.2349 318.746C40.2266 319.817 41.116 322.765 40.2811 323.928C40.2208 321.351 40.4469 318.823 40.4818 316.251C40.5212 313.354 40.4583 310.472 40.5177 307.572C41.7239 308.852 39.4297 316.38 41.9308 317.094C43.6752 316.669 45.9141 313.872 47.7027 312.42C47.8344 311.542 47.6622 307.595 47.8082 305.934Z"/><path fill="#9A1F16" d="M42.8115 318.285C44.0551 317.137 46.7203 314.447 48.0296 313.7L47.9847 315.493C47.7539 317.303 48.1476 318.89 47.2141 320.645L46.6537 320.798C45.4594 320.41 43.9604 319.103 42.8115 318.285Z"/><path fill="#C38382" d="M165.464 218.94L169.724 222.049C168.554 223.828 168.295 225.277 167.67 227.308C166.772 226.837 163.821 225.726 162.562 225.151C163.289 223.206 164.448 220.758 165.464 218.94Z"/><path fill="#A62E25" d="M38.2079 227.978C39.2258 228.309 41.9028 230.462 43.3647 231.33C43.2108 231.804 43.0988 232.263 43.0279 232.756C43.3809 233.356 43.5045 233.433 43.9901 233.917L43.7512 234.044L42.601 233.321C41.4794 233.837 39.9056 235.431 38.8552 236.28C38.8404 238.579 38.9945 245.421 38.7241 247.275C38.4269 245.169 38.5097 241.571 38.4812 239.34C38.4126 235.552 38.3215 231.765 38.2079 227.978Z"/><path fill="#B3504C" d="M126.438 150.774C127.758 150.546 129.641 150.578 131.025 150.559L131.028 150.426C129.431 148.187 127.722 146.522 125.785 144.583C125.344 144.143 124.759 143.886 124.23 143.361C127.436 143.507 130.377 144.258 133.542 144.702C131.88 144.837 129.825 144.601 129.654 146.71C130.016 147.598 133.524 151.393 134.25 152.002C131.838 151.481 129.03 151.278 126.438 150.774Z"/><path fill="#B3504C" d="M289.505 307.869C288.459 307.053 282.298 301.72 282.106 300.655L282.575 300.38C283.599 300.93 286.596 304.196 287.66 305.288C288.18 305.049 288.699 304.807 289.217 304.561C289.326 305.663 289.422 306.765 289.505 307.869Z"/><path fill="#EFD6D2" d="M244.814 98.9234C245.886 97.7472 252.176 91.9255 253.175 91.5712C252.16 92.6766 250.961 93.9217 250.042 95.0798L253.702 93.3432C252.849 94.404 246.268 98.1339 244.814 98.9234Z"/><path fill="#B3504C" d="M86.2786 359.471C86.9542 358.303 91.0438 354.322 92.2994 353.808L92.4632 354.139C91.3933 355.412 88.8746 358.266 87.4695 359.502C87.1889 359.547 86.9084 359.591 86.6278 359.636C86.5899 360.092 86.4579 361.679 86.43 362.014C86.2471 361.046 86.2777 360.437 86.2786 359.471Z"/><path fill="#A62E25" d="M94.7667 364.419C95.1227 366.226 95.2933 369.456 95.3539 371.341C95.2877 371.3 95.2214 371.26 95.1552 371.22L94.8288 371.013C93.741 370.33 93.6822 370.298 92.9027 369.239L93.3551 368.46C94.9073 367.066 94.6466 366.601 94.7667 364.419Z"/><path fill="#B3504C" d="M92.9027 369.239C91.5432 367.941 88.8833 365.542 88.1873 363.931C89.402 364.187 92.3318 367.418 93.3551 368.46L92.9027 369.239Z"/><path fill="#B3504C" d="M257.199 273.317L257.388 273.212C260.076 271.703 262.428 268.927 263.491 268.412C263.45 270.03 259.019 272.897 257.775 273.84C257.654 273.931 257.507 276.576 257.47 276.875C257.262 275.901 257.247 274.353 257.199 273.317Z"/><path fill="#B3504C" d="M147.041 166.341C145.814 164.271 144.079 163.196 143.258 161.59L143.676 161.257C144.28 161.484 147.769 165.35 148.068 166.14L147.041 166.341Z"/><path fill="#C38382" d="M159.356 155.325C162.101 155.021 165.052 155.193 167.811 155.371C166.645 155.568 161.257 156.657 160.554 156.345L160.755 156L160.62 155.612L159.356 155.325Z"/><path fill="#B3504C" d="M304.352 409.958C304.085 408.264 302.315 407.408 301.664 405.945L301.899 405.637C303.495 406.144 304.169 409.001 305.95 409.436L304.352 409.958Z"/><path fill="#B3504C" d="M374.722 328.51C374.855 329.17 374.997 329.131 374.516 329.738C373.721 330.74 371.751 332.92 370.525 333.162C371.142 332.082 373.724 329.537 374.722 328.51Z"/><path fill="#B3504C" d="M149.151 425.034L149.414 424.94C150.252 425.301 158.772 433.903 159.949 435.133L159.744 434.991L159.176 434.903L158.81 435.465C155.975 432.047 151.971 428.663 149.038 425.352L149.151 425.034Z"/><path fill="#B3504C" d="M258.383 276.212C260.041 277.455 263.629 280.59 263.808 282.591C262.73 281.563 261.659 280.528 260.594 279.486C259.332 278.243 258.394 277.728 258.383 276.212Z"/><path fill="#B3504C" d="M114.184 331.175L114.602 331.619C114.539 333.063 111.428 335.479 110.196 336.659L109.859 336.502C109.897 335.135 112.712 333.036 113.968 331.451L114.184 331.175Z"/><path fill="#B3504C" d="M285.719 245.636L285.999 245.742L286.123 246.07C285.364 247.467 281.767 250.686 280.404 251.981L280.203 251.989L280.061 251.681C280.335 251.004 284.657 246.871 285.719 245.636Z"/><path fill="#B3504C" d="M265.807 351.375C265.933 351.439 266.138 351.643 266.257 351.748C265.844 352.924 262.243 356.104 261.164 357.126L260.927 357.143L260.751 356.928C261.027 356.334 264.898 352.462 265.807 351.375Z"/><path fill="#B3504C" d="M111.466 248.211C111.715 248.565 111.657 248.551 111.783 248.992C111.326 250.267 109.625 251.592 108.566 252.562C108.201 252.187 108.354 252.406 108.275 251.757C108.749 250.617 110.501 249.135 111.466 248.211Z"/><path fill="#B3504C" d="M58.6287 215.659C58.7863 215.687 58.9672 215.808 59.1239 215.892C58.8634 216.676 55.7024 219.774 54.917 220.604C54.3865 220.513 54.6053 220.637 54.2556 220.242C54.564 219.512 57.7803 216.539 58.6287 215.659Z"/><path fill="#B3504C" d="M249.835 96.5863L250.818 96.7667C251.979 97.6848 253.615 99.0181 253.806 100.544C252.479 100.326 250.27 97.8557 249.835 96.5863Z"/><path fill="#B3504C" d="M290.138 327.15L290.463 327.525C290.259 328.646 286.496 331.798 285.458 332.745L285.259 332.393C285.728 331.519 289.197 328.137 290.138 327.15Z"/><path fill="#B3504C" d="M330.145 115.294L331.078 115.397L326.919 119.775C326.718 120.007 326.863 119.902 326.407 119.934L326.225 119.504C327.036 118.255 328.778 116.933 329.953 115.526L330.145 115.294Z"/><path fill="#B3504C" d="M261.272 365.657C263.183 366.151 264.989 368.477 266.081 370.062C264.755 369.857 261.953 366.833 261.272 365.657Z"/><path fill="#B3504C" d="M273.805 120.657C275.247 120.631 277.512 123.385 277.765 124.758C276.679 124.383 274.271 121.735 273.805 120.657Z"/><path fill="#B3504C" d="M176.736 440.403L177.123 440.674L177.15 441.217C176.17 442.436 174.969 443.524 173.834 444.607L173.596 444.647L173.453 444.297C173.834 443.461 175.914 441.388 176.736 440.403Z"/><path fill="#B3504C" d="M107.539 297.428C108.943 297.822 111.381 300.293 111.563 301.821C110.255 300.499 107.794 298.992 107.539 297.428Z"/><path fill="#B3504C" fill-opacity="0.98823529" d="M107.233 211.215C108.519 211.516 110.776 214.061 111.069 215.367C109.985 214.421 107.628 212.569 107.233 211.215Z"/><path fill="#A62E25" d="M104.331 169.759C104.583 170.92 104.136 172.047 102.913 172.333L102.361 172.273L102.181 171.965C102.523 171.087 103.558 170.401 104.331 169.759Z"/><path fill="#A62E25" d="M290.98 51.9704C292.269 52.0594 293.251 53.0937 293.528 54.3197C292.502 54.1665 291.305 52.933 290.98 51.9704Z"/><path fill="#9A1F16" d="M119.664 140.432C111.737 138.874 103.829 137.221 95.9418 135.474C79.8548 131.673 63.8519 127.525 47.9443 123.032C41.5947 121.197 35.1191 119.306 28.9081 117.068C22.3178 114.694 15.8698 111.647 24.6258 105.879C31.1541 101.58 38.2674 94.5451 43.7914 88.8377C46.8105 85.7213 49.7979 82.5743 52.7531 79.3972C56.8405 74.9519 61.2975 69.2514 66.3577 65.9232C68.5988 64.4492 72.1927 65.1703 74.1125 66.8628C77.0746 69.4352 80.0051 72.0758 82.9593 74.6738C88.2769 79.3798 93.7505 83.9065 99.3709 88.2465C121.82 105.468 143.215 118.969 169.173 130.363C174.36 132.639 179.501 135.368 184.745 137.552C186.96 138.475 188.936 138.926 191.145 139.631C189.308 140.93 187.439 142.236 185.25 142.849C171.476 146.705 147.964 145.116 133.92 142.633L133.587 142.572C132.136 142.445 131.17 142.299 129.735 142.034C127.968 141.917 124.782 141.261 122.971 140.931C121.697 140.65 120.951 140.564 119.664 140.432ZM63.0561 80.6888L62.4223 81.297C52.6015 91.0712 42.9952 100.596 32.1927 109.321C42.9586 112.364 55.4509 117.117 66.3979 120.658C82.4268 125.813 98.7162 130.119 115.198 133.559C117.58 133.999 119.955 134.406 122.304 134.999C123.87 135.011 133.717 137.053 136.208 137.372C147.659 138.839 160.012 140.398 171.554 139.93C169.455 138.645 163.396 135.959 160.834 134.711C155.681 132.168 150.607 129.467 145.62 126.613C125.133 115.071 104.701 100.296 86.2633 85.7458C82.5515 82.8167 73.5624 76.1588 70.5147 73.0312C68.1313 75.682 65.6432 78.2365 63.0561 80.6888Z"/><path fill="#B3504C" d="M115.198 133.559C117.58 133.999 119.955 134.406 122.304 134.999L120.306 135.077C119.602 135.107 119.543 135.165 118.999 135.55C118.688 136.984 122.051 139.143 122.971 140.931C121.697 140.65 120.951 140.564 119.664 140.432C120.166 140.271 120.129 140.277 120.483 139.88C120.133 138.666 116.604 135.417 115.423 133.858L115.198 133.559Z"/><path fill="#B3504C" d="M62.4223 81.297C61.6627 79.9551 57.882 77.2663 57.9767 76.1401L58.4404 76.0408C60.3408 77.1568 61.9473 80.0677 63.0561 80.6888L62.4223 81.297Z"/><path fill="#B3504C" d="M129.735 142.034C133.812 141.801 132.685 140.786 135.421 138.682L135.599 138.855C135.111 140.265 133.643 141.734 133.587 142.572C132.136 142.445 131.17 142.299 129.735 142.034Z"/><path fill="#9A1F16" d="M229.348 130.515C233.308 127.499 236.625 124.334 240.442 121.341C245.545 117.338 251.188 113.605 256.352 109.594C278.939 91.8072 301.643 77.0806 329.533 68.7494C353.639 61.5485 396.798 58.4374 406.813 88.4858C412.248 104.793 401.22 124.157 384.825 128.74C376.502 131.066 365.869 128.503 358.408 124.269C369.335 122.675 382.056 123.585 391.036 116.05C401.179 107.539 403.45 91.7354 394.446 81.5916C387.957 74.2807 373.021 70.6089 363.444 70.1747C334.626 68.8683 306.108 83.3072 282.672 98.7666C277.928 101.942 269.889 107.736 265.632 111.461L265.392 112.177C272.244 109.353 282.884 103.515 289.617 99.7755C310.517 87.9853 331.309 80.3496 355.562 78.8666C369.188 78.0334 390.499 79.2314 391.605 97.6224C391.664 98.6067 391.796 99.9621 391.116 100.736C390.303 100.536 388.605 97.1917 387.331 95.9597C379.904 88.7745 371.056 87.4229 361.459 87.0006L358.58 86.9404C320.132 87.5225 304.134 101.33 271.983 117.22L270.057 118.039C266.81 119.329 263.975 120.159 260.558 120.918C258.036 121.478 253.537 121.811 251.333 122.979C246.041 125.784 237.656 134.397 231.35 134.506C229.211 135 226.995 135.074 224.828 134.722C224.056 134.6 223.861 134.598 223.502 134.085C223.984 132.884 227.361 131.841 229.05 130.716L229.348 130.515Z"/><path fill="#A62E25" d="M231.35 134.506C229.211 135 226.995 135.074 224.828 134.722C224.056 134.6 223.861 134.598 223.502 134.085C223.984 132.884 227.361 131.841 229.05 130.716L229.348 130.515L229.244 130.793C228.829 131.875 227.953 133.184 227.935 133.922C228.862 134.886 230.084 134.353 231.35 134.506Z"/><path fill="#B3504C" d="M358.58 86.9404C360.212 85.7022 365.153 79.9882 366.293 79.5756C366.313 80.541 361.452 85.0159 360.493 86.4955C360.947 86.8395 360.918 86.8307 361.459 87.0006L358.58 86.9404Z"/><path fill="#B3504C" d="M270.057 118.039C269.415 116.176 266.717 114.497 266.211 113.123C267.908 113.287 270.441 117.001 271.983 117.22L270.057 118.039Z"/><path fill="#B3504C" d="M260.254 107.178C262.233 108.246 263.969 109.942 265.632 111.461L265.392 112.177L265.154 112.511L264.587 112.512C264.177 111.617 261.252 108.598 260.254 107.178Z"/><path fill="#B3504C" d="M378.666 66.8372L378.967 66.9737L379.088 67.3185C378.277 68.3823 376.73 69.8558 375.741 70.8539C375.623 70.7967 375.422 70.5851 375.312 70.4831C375.587 69.583 377.828 67.6113 378.666 66.8372Z"/><path fill="#B3504C" d="M325.207 85.9875C326.426 86.2447 328.071 88.0366 328.049 89.2975C327.23 88.8164 325.387 86.8994 325.207 85.9875Z"/><path fill="#9A1F16" d="M293.692 137.632C317.252 138.889 341.026 142.615 364.728 141.22C368.839 140.978 372.886 140.18 376.94 139.499L378.478 139.621C378.857 140.075 378.879 140.095 379.142 140.622L379.467 140.792C380.478 141.802 381.974 143.187 382.714 144.332C382.477 144.967 382.318 145.265 382.3 145.953C360.487 151.231 324.897 147.375 302.152 145.038L300.104 144.877L298.071 144.723C297.859 144.54 297.698 144.408 297.558 144.156C296.293 141.886 293.682 140.608 293.129 138.028L293.692 137.632Z"/><path fill="#B3504C" d="M300.104 144.877C301.629 144.615 303.963 141.174 306.131 140.04C305.368 141.444 302.429 143.941 302.152 145.038L300.104 144.877Z"/><path fill="#9A1F16" d="M40.2811 323.928C41.116 322.765 40.2266 319.817 41.2349 318.746C42.5219 318.545 47.511 323.258 48.0402 324.34C47.9428 335.128 48.1582 350.247 49.6562 360.725C52.6214 362.499 56.8761 364.416 60.0038 366.096C70.2251 371.586 79.625 377.235 86.8175 386.5C77.0438 384.486 65.5848 379.74 57.8123 373.433C54.3295 370.607 46.655 362.304 44.3786 358.522C38.7223 349.126 39.7543 334.747 40.2811 323.928Z"/><path fill="#9A1F16" d="M178.986 370.378C180.145 371.21 182.689 373.272 183.755 373.381C183.863 377.542 184.272 381.707 184.432 385.897C184.698 393.402 184.823 400.91 184.806 408.419C184.83 413.437 184.914 418.573 184.432 423.565C184.041 427.612 183.154 431.47 182.37 435.431C181.95 437.145 181.509 440.219 180.248 441.263C180.08 439.885 179.514 438.34 179.08 436.994C176.672 430.334 177.736 419.072 178.256 412.133C178.503 408.838 178.536 405.425 178.631 402.114C179.036 391.54 179.155 380.958 178.986 370.378Z"/><path fill="#A62E25" d="M179.08 436.994C180.458 436.408 180.885 435.85 182.37 435.431C181.95 437.145 181.509 440.219 180.248 441.263C180.08 439.885 179.514 438.34 179.08 436.994Z"/><path fill="#9A1F16" d="M228.582 155.897C233.376 156.528 240.166 160.322 244.201 163.143C253.876 169.873 261.708 178.921 266.983 189.46C267.855 191.211 269.347 194.303 269.679 196.156C269.617 196.143 269.556 196.129 269.494 196.116C258.111 188.415 234.679 165.903 228.582 155.897Z"/><path fill="#A62E25" d="M261.501 183.93C261.6 183.998 261.83 184.29 261.92 184.396C261.673 185.198 260.748 185.932 260.109 186.55C259.705 185.919 259.747 186.238 259.889 185.576C260.524 184.99 260.92 184.573 261.501 183.93Z"/><path fill="#A62E25" d="M177.321 251.925L177.444 251.197L177.708 251.055C178.215 251.952 178.282 252.731 178.475 253.746C181.171 264.284 181.516 275.748 181.986 286.569C182.905 307.753 181.861 329.839 182.946 350.932C180.663 351.617 180.71 351.948 178.821 353.149C178.73 347.334 178.779 341.478 178.865 335.666C179.232 310.785 179.183 285.891 177.364 261.061C177.169 258.405 177.028 254.545 177.321 251.925Z"/><path fill="#9A1F16" d="M159.033 115.737C174.302 113.201 193.823 111.21 208.494 116.901C203.656 119.021 195.869 120.154 190.595 120.556C188.488 120.864 187.234 121.001 185.103 121.001C176.742 121.766 164.345 122.52 156.234 121.035C155.718 118.5 157.882 118.304 159.033 115.737Z"/><path fill="#B3504C" d="M185.103 121.001C185.688 120.883 186.17 120.878 186.534 120.444C186.525 118.219 183.701 117.306 182.603 115.233L182.822 114.961L183.45 114.983C184.539 115.676 185.671 117.224 186.523 118.216C188.419 120.422 187.878 120.43 190.595 120.556C188.488 120.864 187.234 121.001 185.103 121.001Z"/><path fill="#9A1F16" d="M86.7723 223.873C89.4337 236.128 88.6576 248.636 88.4528 261.102C88.5062 267.284 88.526 273.466 88.5122 279.647C87.7025 277.007 86.4605 277.979 85.9738 276.105L85.1261 276.052C84.3098 277.038 83.3115 277.876 82.4697 278.655C81.8159 279.259 82.0978 283.035 81.9686 284.112C81.5334 281.334 81.4721 264.025 81.7102 260.972C81.4544 248.974 82.4897 235.098 86.7723 223.873Z"/><path fill="#A62E25" d="M81.7102 260.972C82.0884 264.359 81.2773 268.378 82.2386 271.478C82.2057 271.372 83.1907 272.247 83.3629 272.498C83.988 273.105 84.4319 273.662 85.2391 273.94C85.784 274.862 86.0505 275.1 85.9738 276.105L85.1261 276.052C84.3098 277.038 83.3115 277.876 82.4697 278.655C81.8159 279.259 82.0978 283.035 81.9686 284.112C81.5334 281.334 81.4721 264.025 81.7102 260.972Z"/><path fill="#B3504C" d="M83.3629 272.498C83.988 273.105 84.4319 273.662 85.2391 273.94C85.784 274.862 86.0505 275.1 85.9738 276.105L85.1261 276.052C84.1317 274.81 83.3259 274.091 83.3629 272.498Z"/><path fill="#A62E25" d="M88.1526 271.681C88.1911 269.444 87.9673 262.866 88.4528 261.102C88.5062 267.284 88.526 273.466 88.5122 279.647C87.7025 277.007 86.4605 277.979 85.9738 276.105C86.0505 275.1 85.784 274.862 85.2391 273.94C86.2653 273.237 87.1878 272.464 88.1526 271.681Z"/><path fill="#9A1F16" d="M188.583 159.191L188.935 159.342C193.21 164.964 186.385 181.351 178.322 182.124C177.951 180.933 181.313 174.303 182.062 172.827C180.045 174.12 179.271 174.639 177.062 175.604C175.434 176.329 167.299 178.92 166.052 177.633C166.408 176.326 186.207 160.657 188.583 159.191Z"/><path fill="#A62E25" d="M376.94 139.499C387.695 136.677 394.756 133.573 402.659 124.984C404.61 122.864 406.186 120.222 407.983 118.113C407.868 119.196 407.742 120.274 407.614 121.355C406.009 134.932 394.929 143.019 382.3 145.953C382.318 145.265 382.477 144.967 382.714 144.332C383.01 144.37 382.825 144.379 383.234 144.133L383.206 143.679C382.356 142.45 381.462 141.329 380.127 140.588L379.467 140.792L379.142 140.622C378.879 140.095 378.857 140.075 378.478 139.621L376.94 139.499Z"/><path fill="#9A1F16" d="M201.269 158.952C193.819 156.216 186.678 148.216 195 141.007C198.398 138.063 203.414 138.603 207.62 139.194C204.968 140.575 200.871 142.575 199.464 145.267C197.454 149.111 204.213 151.1 206.698 152.039C207.066 152.216 208.068 152.668 208.348 152.87C207.735 153.736 207.536 153.821 206.615 154.371C205.15 155.658 202.994 157.641 202.923 159.5C202.883 159.556 202.844 159.613 202.804 159.669C202.365 159.223 201.918 159.175 201.269 158.952Z"/><path fill="#B3504C" d="M205.553 154.03C205.816 154.105 206.409 154.249 206.615 154.371C205.15 155.658 202.994 157.641 202.923 159.5C202.883 159.556 202.844 159.613 202.804 159.669C202.365 159.223 201.918 159.175 201.269 158.952C202.085 158.463 201.642 158.247 202.321 157.466C203.356 156.276 204.448 155.153 205.553 154.03Z"/><path fill="#A62E25" d="M206.698 152.039C207.066 152.216 208.068 152.668 208.348 152.87C207.735 153.736 207.536 153.821 206.615 154.371C206.409 154.249 205.816 154.105 205.553 154.03C205.866 152.961 205.904 152.81 206.698 152.039Z"/><path fill="#9A1F16" d="M178.821 353.149C180.71 351.948 180.663 351.617 182.946 350.932C183.32 358.445 183.745 365.846 183.755 373.381C182.689 373.272 180.145 371.21 178.986 370.378L178.821 353.149Z"/><path fill="#9A1F16" d="M169.724 222.049C172.724 224.514 174.707 226.196 177.291 229.158C173.522 228.725 171.408 228.382 167.67 227.308C168.295 225.277 168.554 223.828 169.724 222.049Z"/><path fill="#A62E25" d="M146.998 118.782C151.51 117.14 154.293 116.67 159.033 115.737C157.882 118.304 155.718 118.5 156.234 121.035C153.426 120.774 149.656 119.709 146.998 118.782Z"/><path fill="#B3504C" fill-opacity="0.98823529" d="M290.576 137.415C291.601 137.447 292.694 137.437 293.692 137.632L293.129 138.028C293.682 140.608 296.293 141.886 297.558 144.156C297.698 144.408 297.859 144.54 298.071 144.723C296.317 144.549 294.683 144.516 292.89 144.302C293.919 144.188 295.571 144.178 296.658 144.142C295.146 142.6 291.579 139.092 290.576 137.415Z"/><path fill="#EFD6D2" fill-opacity="0.98823529" d="M213.525 131.516C215.182 129.815 216.967 123.478 218.332 122.098L218.363 122.98L218.738 123.237C216.57 127.144 215.715 130.447 214.048 133.608C214.039 132.541 214.13 132.313 213.525 131.516Z"/><path fill="#B3504C" fill-opacity="0.98823529" d="M70.2347 176.244L70.664 175.837C70.2942 174.001 67.4124 172.367 66.9162 171.139C69.028 171.11 70.9478 175.309 72.617 176.169L70.2347 176.244Z"/><path fill="#050106" fill-opacity="0.25882354" d="M300.433 90.5099L300.605 90.6452C300.215 91.8201 296.387 93.3931 294.9 94.2413L294.705 93.9386C295.209 92.8975 298.973 91.541 300.433 90.5099Z"/><path fill="#B3504C" fill-opacity="0.98431373" d="M379.467 140.792L380.127 140.588C381.462 141.329 382.356 142.45 383.206 143.679L383.234 144.133C382.825 144.379 383.01 144.37 382.714 144.332C381.974 143.187 380.478 141.802 379.467 140.792Z"/><path fill="#050106" fill-opacity="0.22745098" d="M291.929 95.2393L292.068 95.3681C291.784 96.2135 287.174 98.6943 286.114 99.3143L285.906 99.0293C287.33 97.8594 290.266 96.1802 291.929 95.2393Z"/></svg>