<?xml version="1.0" encoding="utf-8" ?><svg xmlns="http://www.w3.org/2000/svg" xmlns:xlink="http://www.w3.org/1999/xlink" width="358" height="278" viewBox="0 0 358 278"><path fill="#A02019" transform="scale(0.310764 0.310268)" d="M414.62 118.266C417.726 117.855 422.249 120.383 424.317 122.614C436.152 135.386 449.705 146.021 462.221 157.992C467.244 162.796 470.995 168.104 467.699 175.041C456.599 198.403 444.108 221.336 431.947 244.185C425.602 256.219 417.556 269.053 412.952 281.654C420.829 280.038 431.397 279.23 439.551 278.569C487.756 274.667 528.735 277.836 573.488 296.663C576.515 292.47 583.058 285.659 586.751 281.834C604.889 263.044 625.012 245.725 649.048 234.817C672.765 224.054 701.455 217.359 727.329 213.657C732.716 212.887 744.141 213.016 749.779 212.994C779.772 212.877 815.136 216.345 843.225 226.79C854.616 231.091 865.407 236.84 875.332 243.894C896.237 258.81 935.85 299.73 950.308 320.188C957.223 330.164 963.242 340.731 968.294 351.767C990.464 400.444 990.163 451.356 983.408 503.702C978.059 545.155 966.465 585.604 938.821 618.305C932.121 626.23 921.645 633.925 913.176 639.849C901.104 648.195 888.286 655.407 874.886 661.395C826.495 683.058 776.289 692.056 723.769 687.341C715.491 686.598 661.594 681.783 668.156 667.079C671.41 665.527 693.763 667.993 699.049 668.087C710.938 668.297 723.797 670.12 735.756 670.814C795.943 674.308 865.903 654.372 912.522 615.66C949.794 584.709 964.491 523.59 968.195 477.662C973.011 417.129 963.944 359.89 922.613 312.931C914.578 303.801 905.878 295.007 897.927 286.385C870.896 256.236 843.791 240.66 804.439 232.704C735.662 218.798 662.58 233.418 609.262 280.236C600.947 287.218 591.887 295.567 583.449 302.092C591.898 304.971 596.965 308.366 604.211 313.495C622.451 296.141 641.659 269.415 667.542 262.141C699.788 253.079 750.656 248.256 784.072 253.183C825.892 259.348 877.616 292.988 902.947 326.691C954.158 399.683 959.227 551.271 881.56 607.721C869.669 616.191 856.536 622.766 842.63 627.211C809.748 638.063 741.927 646.439 706.281 642.968C692.187 641.595 688.843 634.788 681.545 624.584C676.343 634.489 671.964 646.391 666.736 656.497C660.575 668.406 653.768 679.838 645.924 690.67C608.985 741.683 563.093 764.548 502.714 778.245C489.492 781.363 476.157 783.976 462.737 786.079C450.54 787.913 422.065 790.98 409.064 790.757C377.493 790.217 331.535 782.816 304.725 764.827C299.274 761.17 287.42 747.935 282.381 742.713C275.025 735.092 264.741 725.282 258.47 717.123C227.863 677.303 202.142 620.372 195.314 570.477C189.29 526.45 194.29 474.278 210.649 433.068C216.154 419.201 222.967 406.264 230.204 393.36C237.033 381.185 241.758 372.685 249.937 361.652C272.458 331.273 302.516 315.322 337.666 303.207C348.472 299.482 358.705 295.403 370.298 293.85C351.312 282.545 329.97 276.509 309.843 267.245C295.818 260.79 283.501 253.229 269.925 245.986C263.664 242.646 257.733 240.781 251.393 237.842C250.889 236.407 250.468 234.945 250.132 233.462C247.07 219.415 251.895 181.978 259.698 168.931C261.695 165.592 266.449 162.661 270.061 161.145C298.555 149.18 329.914 141.255 359.646 133.037C377.38 128.136 396.843 122.063 414.62 118.266ZM434.11 764.471C470.834 764.087 543.829 744.941 576.372 727.372C589.437 720.303 601.355 711.293 611.717 700.65C654.878 656.679 678.846 581.52 677.765 520.652C678.408 497.482 673.185 477.031 667.873 454.928C657.62 411.733 639.904 375.794 608.387 344.227C573.45 309.233 530.861 295.438 482.084 294.195C470.929 293.91 461.831 292.257 450.265 293.365C405.353 296.557 333.898 312.339 295.498 337.064C284.272 344.292 274.347 353.635 265.637 363.709C255.267 375.704 246.492 389.273 238.489 402.927C230.957 415.776 223.608 428.821 218.665 442.926C208.391 472.244 207.622 517.853 209.951 548.936C214.388 608.169 248.267 691.132 294.072 730.394C300.556 735.953 307.701 741.19 315.314 745.084C340.179 757.8 378.065 764.267 405.824 765.145C415.263 765.443 424.683 764.87 434.11 764.471ZM683.58 616.753C691.635 617.455 701.45 620.212 708.219 620.658C725.277 621.781 748.078 620.649 764.985 618.571C805.281 613.208 839.963 609.272 874.898 585.614C883.47 579.809 893.244 571.98 899.516 563.642C921.505 534.411 922.775 473.346 918.995 438.696C915.377 405.536 905.692 365.691 886.347 338.536C878.901 328.084 863.677 314.026 853.279 306.277C822.439 283.291 789.633 267.089 750.281 269.657C711.96 273.518 677.877 266.818 644.619 292.483C632.29 301.997 623.074 311.425 611.649 321.632C664.568 364.92 691.11 432.072 698.683 498.749C703.208 538.598 694.525 578.541 683.58 616.753ZM374.782 148.3C381.656 155.918 404.044 175.066 412.774 180.439C419.134 178.342 442.025 170.267 445.858 177.311C445.393 185.426 424.993 191.422 418.67 193.828L413.427 222.61C412.086 231.098 409.91 247.253 407.745 254.9C413.407 246.784 417.196 238.597 421.6 229.757C427.368 218.18 433.207 206.377 439.676 195.167C443.393 188.726 449.875 181.245 454.323 175.072C441.821 165.292 430.813 155.087 420.803 142.687C419.087 140.561 416.731 136.458 414.418 136.727C406.232 139.515 382.439 147.579 374.782 148.3ZM330.492 219.241C337.232 224.469 351.699 233.12 359.829 238.591C366.166 243.482 371.872 247.904 377.864 253.243C381.889 256.83 388.335 263.561 392.497 266.55C393.447 257.127 399.42 206.184 397.993 201.474C397.685 201.453 397.052 201.372 396.794 201.438C377.847 206.388 349.123 217.122 330.492 219.241ZM358.292 155.282C352.008 157.235 346.969 158.835 340.57 160.213C340.241 177.836 336.511 188.066 330.799 204.382C338.254 202.512 344.61 199.971 351.706 197.932C364.67 194.132 372.646 191.591 385.282 186.49C375.407 177.581 368.38 166.739 360.62 156.087C359.985 155.214 359.188 155.28 358.292 155.282ZM275.792 178.415C273.959 184.342 271.273 212.142 271.752 218.465L272.942 218.687C279.458 217.474 303.802 212.907 306.254 208.085C311.008 198.733 319.68 177.679 321.554 167.395L320.585 167.263C310.715 168.659 285.677 175.379 275.792 178.415ZM376.379 278.483C380.07 280.985 385.292 285.168 389.526 285.536L390.595 284.814C392.056 276.3 379.363 272.344 373.456 267.634C361.263 257.912 319.085 225.916 304.059 226.78C296.198 228.401 287.786 230.658 279.948 231.526C284.496 233.283 290.934 236.921 295.639 239.177L329.735 255.504C345.405 263.112 361.3 269.128 376.379 278.483Z"/><path fill="#A02019" transform="scale(0.310764 0.310268)" d="M437.753 314.111C478.804 312.931 541.714 325.207 576.867 347.366C607.166 365.96 623.056 395.115 638.39 425.381C679.011 505.561 659.621 580.315 612.936 652.83C568.761 721.447 525.849 722.478 450.835 738.731C441.656 741.251 426.835 744.359 417.396 745.128C380.46 748.136 340.465 730.821 312.893 707.104C280.038 678.844 261.39 644.756 248.721 603.88C241.342 580.075 235.763 558.832 234.137 533.339C230.454 480.563 247.845 428.479 282.499 388.502C299.217 369.558 319.569 354.165 342.35 343.235C352.137 338.583 362.896 335.2 372.615 330.422C394.018 319.899 413.89 315.645 437.753 314.111ZM612.721 600.91L603.717 598.495C588.206 591.672 561.17 554.655 555.157 538.07C541.538 500.505 542.813 456.209 551.258 417.459C552.265 408.991 568.653 366.782 579.447 381.006C581.6 383.844 573.35 411.283 572.386 417.068C561.866 480.239 564.742 545.869 618.478 588.265C641.376 545.161 640.887 497.82 625.989 452.224C610.566 405.021 579.444 362.644 530.246 347.426C508.929 340.832 456.102 330.365 433.863 332.091C416.998 333.261 388.509 339.446 373.74 347.038C300.82 384.522 244.714 450.525 254.057 536.848C256.277 557.368 259.52 575.037 266.237 594.698C284.523 659.914 327.286 710.766 396.736 721.518C404.753 722.759 414.41 726.253 423.159 725.08C437.301 722.567 455.159 715.412 468.917 711.128C513.549 697.23 549.676 692.125 579.872 653.28C589.48 640.92 608.457 615.831 612.721 600.91Z"/><path fill="#A02019" transform="scale(0.310764 0.310268)" d="M544 359.968C546.367 359.618 547.429 359.498 549.301 360.59C551.916 365.128 548.505 372.249 547.127 377.108C543.128 391.207 538.943 405.055 535.283 419.262C521.287 473.591 526.233 533.716 554.298 582.85C561.606 595.153 572.379 604.946 580.064 616.954C585.104 624.83 593.487 643.768 575.026 636.96C562.992 631.274 547.29 612.062 539.924 600.704C517.726 566.479 508.35 519.449 507.383 479.349C506.701 451.096 519.922 375.528 544 359.968Z"/></svg>